<svg xmlns="http://www.w3.org/2000/svg" viewBox="0 0 238.4 118.61"><title>snap-bubba-logo</title><path d="M125.62,118.41c-.1-.12-.13-.26-.08-.32s0-.15-.18-.21a.41.41,0,0,0-.5.19c-.21.28-.24.28-.78,0a2.48,2.48,0,0,0-.84-.26c-.17,0-.2,0-.07.09.44.18.16.32-.41.22a2.16,2.16,0,0,0-.92,0c-.51.2-.87.16-.87-.1a.28.28,0,0,0-.31-.24.4.4,0,0,1-.37-.18c0-.1-.28-.19-.56-.2s-.46-.07-.34-.21,0-.51-.31-.43-.36-.1-.54-.5-.2-.6-.11-.66,0-.22-.11-.38a.72.72,0,0,1-.21-.5c0-.12-.11-.24-.31-.27s-.36-.16-.36-.52-.08-.47-.18-.47-.12-.07,0-.24.1-.72-.22-.72-.47-.8-.35-1.73c.1-.73.29-5,.25-5.47a18,18,0,0,1,0-2.63,8.94,8.94,0,0,0,.09-1.42c0-1,.08-1.31.29-1.47s.23-.22.05-.28A8.27,8.27,0,0,1,117.3,96c.1-.12.1-.22,0-.29a.18.18,0,0,1-.09-.24,28.66,28.66,0,0,0,.07-2.91c0-1.53,0-3.57,0-4.54,0-2.38,0-4.14-.09-6.24a44,44,0,0,1-.07-5,8.8,8.8,0,0,0,0-1.45,6.47,6.47,0,0,1,0-1.58,1.47,1.47,0,0,0,0-.75,7.13,7.13,0,0,1,0-1.67,7.58,7.58,0,0,0,0-1.71,2.12,2.12,0,0,1,0-1,1.12,1.12,0,0,0,0-.77,13.42,13.42,0,0,1-.22-2.46,20.72,20.72,0,0,0-.12-2.16c-.2-.33.16-1,.74-1.43.35-.24.76-.54.91-.68a6.1,6.1,0,0,1,2.86-1c1.3-.24,1.5-.24,2,0a6.38,6.38,0,0,0,1.55.35c.62.07,1,.19,1.09.33a.67.67,0,0,0,.39.31c.17.05.31.2.31.32a2.47,2.47,0,0,0,.33.79,1.5,1.5,0,0,1,.27.76.59.59,0,0,0,.21.47c.5.5.92,2.51,1,4.54a1,1,0,0,0,.18.52,1.17,1.17,0,0,1,.08.75c-.06.4,0,.57.15.64s.21.25.13.81a1.34,1.34,0,0,0,.08,1c.14.17.14.31,0,.57a.83.83,0,0,0-.07.61,2.42,2.42,0,0,1,0,1.44c-.06.1,0,.36.14.57s.22.44,0,.73-.17.36.06.5a.84.84,0,0,1,.08,1.05c-.06.06,0,.19.06.3a10.17,10.17,0,0,1,.39,3,2,2,0,0,1-.17,1c-.15.21-.16.37,0,.51a4.31,4.31,0,0,1,.24,1.37c.14,2.1.18,2.21.81,2.48a5.78,5.78,0,0,0,2,.23c.76,0,1.92,0,2.58.06s1.55.07,2,.07a14.1,14.1,0,0,1,3.62.69c2.38.62,3.27,1,3.79,1.42a2.16,2.16,0,0,0,.71.47c.09,0,.13.11.08.24s0,.24.06.24a2.29,2.29,0,0,1,1,1.07,1.82,1.82,0,0,0,.49.68c.34.34.46.59.4.79s0,.33.21.38.34.28.41.64a1.76,1.76,0,0,0,.42.84c.17.16.27.35.22.43s0,.25.11.38.15.28.09.34,0,.26.22.45a13.16,13.16,0,0,1,1.31,5c0,1-.09,1.14-.42,1.23s-.34.1,0,.25.32.22.25.34a4.42,4.42,0,0,0-.24,1.49,7.79,7.79,0,0,1-.49,2.09c-.08.1-.09.22,0,.28s0,.28-.16.5a1.58,1.58,0,0,0-.26.64.56.56,0,0,1-.28.4c-.27.16-.27.16,0,.17s.35.2,0,.45a2.45,2.45,0,0,0-.63.8,3.07,3.07,0,0,1-.72.9c-.23.17-.41.4-.41.53a.39.39,0,0,1-.25.32.31.31,0,0,0-.17.39c0,.19,0,.3-.15.3a.23.23,0,0,0-.23.23c0,.31-.73,1-1.23,1.22a.84.84,0,0,0-.48.48.66.66,0,0,1-.54.42,1.54,1.54,0,0,0-.72.39.89.89,0,0,1-.48.3c-.13,0-.17.1-.11.26s0,.25-.41.19-.51,0-.51.14-.07.21-.15.21a2.06,2.06,0,0,0-.64.42c-.27.23-.59.38-.72.33a.64.64,0,0,0-.52.14c-.23.18-.25.23-.06.23.5,0-.58.47-1.15.47-.32,0-.61.09-.65.18a5.41,5.41,0,0,1-2.31.52,1.33,1.33,0,0,0-.63.14,1.09,1.09,0,0,1-.57.12,12.83,12.83,0,0,0-2.76.58c-.54.15-.84.17-1,.06s-.79-.22-.67,0,0,.18-.15.23a.29.29,0,0,1-.34-.07.27.27,0,0,0-.32-.08,1.3,1.3,0,0,1-.68-.08,1.61,1.61,0,0,0-1.16.08c-.87.3-1.17.31-1.4,0Zm7.1-.75a.34.34,0,0,0-.25-.16.16.16,0,0,0-.15.16c0,.09.11.16.25.16S132.77,117.75,132.72,117.66Zm-6.18-2.09c1.88-.14,2.33-.13,2.44,0s.17.16.26,0a9,9,0,0,1,3.14-.54,1.44,1.44,0,0,0,.82-.16.83.83,0,0,1,.57-.16,3.39,3.39,0,0,0,1.07-.25,2.53,2.53,0,0,1,.91-.22,2,2,0,0,0,.77-.15,2.49,2.49,0,0,1,.73-.18.72.72,0,0,0,.44-.17,6.87,6.87,0,0,1,1.54-.9c.15-.05.28-.19.28-.3s.38-.36.84-.54a7,7,0,0,0,1.69-1.13,7.28,7.28,0,0,1,1.08-.87.34.34,0,0,0,.23-.26,5.63,5.63,0,0,1,1-1.17c1.34-1.33,1.61-1.9,2.3-4.83a6.22,6.22,0,0,1,.41-1.3,9.6,9.6,0,0,0,.1-2.9c0-.29-.07-.52-.14-.52s-.17-.32-.23-.72-.17-.72-.24-.72a7,7,0,0,1-1.07-2.16c-.08-.47-.42-1.2-.56-1.2s-.12-.1-.12-.23a.48.48,0,0,0-.2-.36,1.87,1.87,0,0,1-.6-1,1.14,1.14,0,0,0-.33-.52l-.87-.9c-1.28-1.33-1.85-1.79-2.1-1.69a9.63,9.63,0,0,1-2.78-.67,36.31,36.31,0,0,0-5.68-.24c-4.18,0-4.35-.09-5.22-1.37-.52-.77-.61-1.3-.7-4.19-.08-2.45-.44-7.55-.62-8.72-.1-.65-.29-3.08-.36-4.64a18.5,18.5,0,0,0-.31-2.48c-.14-.66-.27-1.32-.29-1.48a.83.83,0,0,0-.15-.39.64.64,0,0,1-.11-.38,4.62,4.62,0,0,0-.88-1.91.67.67,0,0,1-.24-.42c0-.27,0-.27-1.36.08-1,.25-1.16.37-1.41.83s-.28.55,0,.73.21.22.07.31-.11.18.11.34.26.25.08.36-.18.24-.09.43a2.08,2.08,0,0,1,.14.46,2,2,0,0,0,.22.52c.23.41.17.45-.28.17-.17-.11-.36-.14-.42-.08s.26.6.6.6.37.27-.1.39c-.22.06-.4.16-.4.24s.14.1.32.06.36,0,.48.35c.22.57.09.73-.48.62-.3-.06-.47,0-.47.09s.14.18.31.18a.63.63,0,0,1,.49.32c.15.29.12.32-.35.34l-.53,0,.44.18c.26.1.41.26.37.38s0,.21.08.21.15.11.15.24-.07.24-.15.24-.11.14-.06.32.15.32.23.32c.27,0,.14.48-.14.49s-.24,0,0,.12.38,2.92,0,3.12c-.17.1-.18.18,0,.36s.14.23,0,.23-.08.11.14.28.34.35.21.78a1,1,0,0,0,0,.6,1.94,1.94,0,0,1,.13.72c0,.44,0,.65-.22.72s-.21.12,0,.31.29.44.29,1.49a6.23,6.23,0,0,1-.1,1.44,1.27,1.27,0,0,0,.06.71,2.6,2.6,0,0,1,0,2.15c-.3.53-.3.53,0,.64s.31.14.11.29a.73.73,0,0,0,0,1.06c.2.13.2.16,0,.25s-.23.2-.12.6a3.22,3.22,0,0,1-.21,2c-.09.11-.1.2,0,.2s0,.11-.08.24-.16.28.05.44a1.27,1.27,0,0,1,.36.62c.08.34,0,.45-.23.53s-.43.34-.08.53.23.2.06.51-.15.39,0,.5.18.17,0,.3-.19.19,0,.28.15,1.84-.09,1.92-.11.19,0,.46a.84.84,0,0,1,.05.57.23.23,0,0,0,.11.3c.17.11.16.2-.08.46s-.23.33-.15.33a4.62,4.62,0,0,1,0,2.37c-.2.13-.17.74.05,1.31.12.31.1.44-.1.59s-.22.23-.06.39a.52.52,0,0,1-.12.89c-.18,0-.32.19-.32.32s.14.27.32.32c.38.1.38.07.09.78a2.6,2.6,0,0,0-.15,1.23c0,.37.09.82.11,1a1,1,0,0,0,.3.56c.24.21.26.36.12,1.12a6.45,6.45,0,0,1-.31,1.2,2.62,2.62,0,0,0-.19.78c0,.29-.14.49-.32.54s-.36.31-.13.67a.38.38,0,0,1-.09.5c-.21.24-.2.27.11.35s.34.17.26.63c-.18,1.14,1.09,1.94,2.84,1.78l2.94-.23Zm4.06-6.51a1.35,1.35,0,0,1-.83-.46c-.28-.35-.33-.37-.55-.15-.39.39-.56.29-.76-.44a3.48,3.48,0,0,0-.31-.84,1.07,1.07,0,0,1-.12-.56,8.76,8.76,0,0,0-.12-1.17c-.11-.7-.09-.78.22-.86s.48-.37.18-.37c-.09,0-.12-.17-.06-.4a.81.81,0,0,0-.08-.62c-.14-.16-.12-.27.06-.42a.65.65,0,0,0,.17-.59c-.05-.28,0-.42.25-.51s.3-.14.07-.33-.24-.24,0-.49.23-.29,0-.39-.22-.15-.12-.22a3.58,3.58,0,0,0,.71-1.07s-.11-.09-.25-.09-.2-.07-.15-.16a.53.53,0,0,1,.41-.16c.39,0,.4-.27,0-.39a1,1,0,0,1-.48-.5c-.24-.52-.23-.55.06-.55.13,0,.24-.07.24-.16S129,97,128.8,97s-.32-.09-.29-.6c0-.84.5-1.46,1-1.36a3.83,3.83,0,0,0,1.91-.62,12.2,12.2,0,0,1,4.72-.07,10.36,10.36,0,0,1,1.44.41,7.46,7.46,0,0,0,1,.34c.37.11.68.26.68.34s.09.13.2.13a19,19,0,0,1,3.26,1.94c.46.29.78.6.73.69a3.48,3.48,0,0,0-.15.93,3.51,3.51,0,0,1-.22,1.1.79.79,0,0,0-.09.54.25.25,0,0,1-.16.31c-.17.07-.22.21-.15.48a.48.48,0,0,1-.1.52,2.81,2.81,0,0,0-.75,1.11,1,1,0,0,1-.59.45c-.3.08-.38.15-.24.24s.16.19-1.15,1.58a8.15,8.15,0,0,1-1.95,1.48l-1,.63a15.35,15.35,0,0,1-2.72,1.06,6.25,6.25,0,0,1-3.48.43Zm4.07-.94a.32.32,0,0,0-.31,0c-.13.05-.09.09.1.1s.26,0,.21-.08Zm-1-3.62a15.4,15.4,0,0,0,2.7-1.71,1,1,0,0,1,.48-.33c.44,0,2.28-2.1,2.1-2.4a4.74,4.74,0,0,0-1.05-.65,2.92,2.92,0,0,1-.95-.62,2.39,2.39,0,0,0-1-.41,5.05,5.05,0,0,0-3.5.34c-.5.27-.55.36-.59,1.17a4.59,4.59,0,0,1-.31,1.44,4.54,4.54,0,0,0-.41,1.84,1.42,1.42,0,0,1-.16.52.39.39,0,0,0,0,.38.24.24,0,0,1-.11.31c-.72.44,2,.55,2.82.11ZM121,75.1c0-.09-.11-.16-.25-.16s-.2.07-.15.16a.34.34,0,0,0,.25.16A.16.16,0,0,0,121,75.1Zm-.48-9.76c0-.09,0-.16-.07-.16s-.12.07-.17.16,0,.16.07.16A.17.17,0,0,0,120.48,65.34Zm-3-2.88a.16.16,0,1,0-.16.16A.16.16,0,0,0,117.44,62.46Zm96.48,49.43a4.55,4.55,0,0,1-1.25-.29,1.23,1.23,0,0,0-.76-.1c-.22.05-.39,0-.39-.07s-.22-.16-.48-.16-.48-.08-.48-.24-.15-.24-.4-.24-.4-.07-.4-.16-.11-.16-.25-.16-.2-.07-.15-.16c.15-.25-.38-.38-.64-.16s-.24.14-.24,0-.11-.18-.25-.18a.39.39,0,0,1-.34-.24q-.09-.24-.46-.15c-.32.08-.36,0-.28-.27s0-.34-.18-.25a.74.74,0,0,1-.63-.15l-.35-.26.34.08c.68.16.7-.15,0-.36a4.32,4.32,0,0,1-.88-.36.36.36,0,0,0-.37,0c-.12.07-.14,0-.07-.31s0-.41-.08-.41-.14-.07-.09-.16,0-.16-.13-.16a1,1,0,0,1-.52-.32c-.28-.31-.28-.33,0-.55s.27-.26.22-.31-.8.08-.7.24,0,.14-.08.14-.13-.16-.08-.38,0-.41-.16-.48-.23-.21-.15-.5,0-.4-.06-.4-.15-.18-.14-.4.08-.4.14-.4c.24,0,.11-.45-.16-.55s-.26-.12,0-.27.25-.21.09-.4a.38.38,0,0,1,0-.54c.14-.23.14-.31,0-.37s-.15-.11,0-.22a.54.54,0,0,0,.17-.45c-.08-.85,0-1,.5-1s.62-.21.06-.46c-.4-.18-.41-.21-.15-.49s.22-.32.06-.38,0-.15.23-.25c.52-.21.57-.44.12-.58-.27-.09-.29-.15-.12-.45a2.13,2.13,0,0,1,.36-.48c.1-.09.09-.16,0-.21-.41-.17-.18-.36.32-.27s.51.09.24-.22c-.42-.47-.35-.85.2-1.06s.66-.59.22-.59c-.24,0-.24,0,0-.28a.59.59,0,0,0,.18-.46c0-.1,0-.27.18-.38a.68.68,0,0,0,.25-.42c0-.33.54-.81.81-.72s.2,0,0-.18-.15-.29,0-.36a.5.5,0,0,0,.17-.39,1,1,0,0,1,.32-.57c.17-.16.28-.35.23-.42s0-.14.07-.14a.39.39,0,0,1,.27.18c.08.13.17.11.29-.06a1,1,0,0,1,.5-.33c.17,0,0-.09-.36-.1-1,0-.89-.38.28-.76.31-.1.43-.19.28-.2-.34,0-.37-.31-.05-.44a.28.28,0,0,0,.14-.35c-.07-.22-.06-.23.08,0s.2.2.43,0,.25-.24,0-.41-.06-.49.24-.3c.09.05.21,0,.26-.16a1.34,1.34,0,0,1,.56-.5c.26-.13.42-.31.36-.4s0-.2.23-.25.3-.15.25-.22.06-.18.24-.23.32-.17.32-.25.11-.15.24-.15a.23.23,0,0,0,.24-.2c0-.23,1.07-.76,1.52-.76.23,0,.26,0,.11-.19s-.23-.43.13-.33.45-.19.12-.34c-.11-.05,0-.05.32,0s.52,0,.52-.08a.2.2,0,0,0-.2-.18c-.29,0,.55-.46.88-.47s1.56-.65,1.56-.88.24-.2.67-.2.7-.08.73-.17.17-.13.3-.08.2.12,0,.22c-.38.23,0,.37.42.15s.43-.18.61.08.22.26.31,0,.35-.22,1.63.29l1,.39c.29.11.52.25.52.31s.2.19.44.29a6.75,6.75,0,0,1,.68.34,5.71,5.71,0,0,0,2,.67,1.28,1.28,0,0,1,.39.28l.52.45,1.25,1c1.84,1.45,4.06,4.21,3.76,4.68-.05.08.06.23.24.32s.29.24.24.31a2.31,2.31,0,0,0,.46,1,2.35,2.35,0,0,1,.47,1c0,.11.14.44.41.74.54.59.59.78.29,1.09s-.14.19.12.11.39,0,.63.46.37.56.45.56.1.15,0,.33a.71.71,0,0,0,.26.72c.2.21.3.39.22.39s0,.12.17.26.27.24,0,.16c-.49-.17-.3.28.48,1.1a1,1,0,0,1,.2.62c0,.23.07.41.16.41s.16.11.16.24.06.24.13.24.25.22.41.48.22.48.14.48-.16,1,0,1.14,0,.21-.12.35c-.32.32-.32.5,0,.38s.24,0,.24.3-.09.39-.24.39c-.32,0-.3.16,0,.42s.26.22-.07.31-.35.1,0,.43.29.6-.08.6-.48.33-.24.48.13.25-.13.66-.35.61-.35.94c0,.09-.11.16-.23.16s-.2.09-.14.24,0,.24-.16.24-.22.09-.16.24,0,.24-.26.24-.33.07-.25.26,0,.24-.38.16-.48,0-.48.12-.53.39-1,.3c-.13,0-.35-.28-.47-.57-.26-.59-.54-.92-.8-.92s-.22.28,0,.36.15.13.09.19-.23,0-.37-.14a1.05,1.05,0,0,0-.65-.26c-.21,0-.39-.08-.39-.18s.11-.14.23-.09a.28.28,0,0,0,.33-.06c.05-.08-.06-.15-.25-.15a.43.43,0,0,1-.43-.32c0-.18-.19-.32-.31-.32a1.49,1.49,0,0,1-.66-.4,1.53,1.53,0,0,0-.86-.4.74.74,0,0,1-.53-.16c-.07-.11.12-.13.55-.06s.65,0,.65-.08a.17.17,0,0,0-.15-.18,2.86,2.86,0,0,1-1.2-1.27.36.36,0,0,0-.31-.31c-.22,0-.28,0-.21.2s0,.27-.1.28l-.35.06-.36.06a.25.25,0,0,0-.2.27,1.47,1.47,0,0,1-.4.68,1.46,1.46,0,0,0-.4.71c0,.2-.13.28-.41.28s-.39.08-.35.19-.11.36-.33.56-.35.41-.29.47-.38.52-.71.53a.42.42,0,0,0-.35.33.43.43,0,0,1-.41.32,3.45,3.45,0,0,0-1.6.69,1.83,1.83,0,0,1-1.16.45.37.37,0,0,0-.36.23c-.08.2-.22.24-.56.17-.52-.1-1.62.15-1.62.38s-.21.11-.46.06a1.4,1.4,0,0,0-.8.09.62.62,0,0,1-.69,0c-.27-.15-.38-.14-.52,0a.84.84,0,0,1-.68.17c-.32,0-.53,0-.56.16s-.28.18-.94.11Zm.56-.31c.05-.09,0-.16-.16-.16s-.21.07-.16.16.13.16.16.16S214.43,111.67,214.48,111.58Zm-1.52-.3c0-.2-.45-.35-.55-.19a.2.2,0,0,0,0,.23c.15.15.53.12.53,0Zm7-1.07a.32.32,0,0,0-.31,0c-.13.05-.09.09.1.1s.26,0,.21-.08Zm-5.39-2.3a3.43,3.43,0,0,0,1.36-.16.88.88,0,0,1,.6-.16,4.27,4.27,0,0,0,1.07-.18c4-1.27,5-2,7-4.91.75-1.11,1.49-2.18,1.64-2.36.38-.44,1.61-.66,1.74-.31.05.13.15.2.23.16s.19,0,.26.12a6.77,6.77,0,0,0,1.93,1.26c.31.13.52.33.52.5a.27.27,0,0,0,.27.28c.2,0,.23,0,.09.18s0,.36.39.87a2.83,2.83,0,0,0,.88.77.31.31,0,0,1,.26.35c0,.17.07.29.26.32a1.11,1.11,0,0,1,.58.4c.38.5.71.3.93-.55a4.46,4.46,0,0,0-.22-3.17,2,2,0,0,1-.31-1,.69.69,0,0,0-.25-.58c-.19-.19-.3-.4-.25-.49s-.17-.71-.55-1.11c-.2-.22-.19-.25.08-.3.52-.09.65-.34.18-.34-.28,0-.43-.09-.43-.24a.23.23,0,0,0-.22-.24c-.19,0-.68-1-.54-1.07s-.11-.19-.3-.4a1,1,0,0,1-.3-.81c0-.3,0-.44-.19-.44s-.2-.09-.15-.23a.25.25,0,0,0-.14-.32.44.44,0,0,1-.23-.39.75.75,0,0,0-.24-.5,1.11,1.11,0,0,1-.24-.74c0-.35-.08-.54-.22-.54s-.79-.75-.66-1a.47.47,0,0,0-.41-.65c-.17,0-.31-.09-.31-.2s-.33-.45-.72-.76-.71-.65-.71-.76a.22.22,0,0,0-.23-.2,5.11,5.11,0,0,1-2-1.42,3.86,3.86,0,0,0-1.69-1.18c-.24-.06-.2-.1.21-.2s.52-.18.52-.24-.46-.33-.55-.18a1.41,1.41,0,0,1-.77.06,10.13,10.13,0,0,0-3.65.2,10,10,0,0,1-1.11.35,4.57,4.57,0,0,0-2.11,1.15,37.54,37.54,0,0,0-4.32,4.5,10.15,10.15,0,0,0-1.41,2.65,5.66,5.66,0,0,1-.55.94,6.28,6.28,0,0,0-.74,1.58c-.1.41-.25.75-.33.75s-.14.13-.14.28a2.16,2.16,0,0,1-.32.8,2.31,2.31,0,0,0-.32,1,1.14,1.14,0,0,1-.2.68,6.06,6.06,0,0,0-.24,2.29c0,2.17.14,3.14.67,3.53a.61.61,0,0,1,.26.34c0,.2.62.73,1.12.95.22.1.91.43,1.54.75a3.27,3.27,0,0,0,1.72.52c.35,0,.59,0,.6.13s.05.06.09-.1.27-.28,1.33-.28Zm.33-4.28a1.33,1.33,0,0,1-.61-.29.85.85,0,0,0-.51-.23.73.73,0,0,1-.49-.24c-.11-.13-.14-.24-.07-.24s0-.15-.22-.33a1.07,1.07,0,0,1-.35-.54.69.69,0,0,0-.25-.42.54.54,0,0,1-.18-.5c0-.16,0-.32,0-.36a1.92,1.92,0,0,1-.15-.84,1.57,1.57,0,0,0-.16-.81c-.25-.08,0-1,.27-1s.19,0,.06-.09c-.3-.12-.25-.31.2-.79.28-.31.35-.49.24-.6s-.06-.26.2-.46l.36-.29-.36.1c-.22.06-.36,0-.36-.08s.13-.22.3-.26.37-.33.49-.71.25-.63.32-.63.22-.32.32-.72.26-.72.47-.72.39-.2.52-.44a5.35,5.35,0,0,1,2-1.8,3.38,3.38,0,0,0,.53-.19l.53-.21.32-.12a5.54,5.54,0,0,1,.87-.18,1.43,1.43,0,0,0,.72-.25,5.18,5.18,0,0,1,1.64-.24c1.23-.07,1.58,0,1.74.15a.65.65,0,0,0,.41.23,1.36,1.36,0,0,1,.61.4,1.59,1.59,0,0,0,.53.4c.07,0,.22.14.33.32a.66.66,0,0,0,.46.32c.18,0,.23.1.18.31a.32.32,0,0,0,.15.4c.13,0,.19.15.14.23s0,.19.19.25.26.12,0,.33-.27.24-.05.32a.25.25,0,0,1,.17.31.76.76,0,0,0,.08.52c.21.38-.19,1-.54.89-.13,0-.24,0-.24.09s.11.18.24.18.32.25.08.4a2.36,2.36,0,0,0-.43.69,3.87,3.87,0,0,1-.48.8.71.71,0,0,0-.21.38,3,3,0,0,1-.6.84l-1,1.14a13.92,13.92,0,0,1-2.57,2.21,5.25,5.25,0,0,0-.91.66,4.81,4.81,0,0,1-2.25.87.45.45,0,0,0-.41.24c-.15.39-1.38.73-2.17.59Zm1.59-3.86c0-.08.23-.24.52-.35.54-.22.92-.52.92-.72a1.76,1.76,0,0,1,.83-.71c.08,0,.1-.07.05-.15s.72-.81,1-.81c.1,0,.18-.12.18-.26s.1-.23.3-.18.29,0,.28-.18a.19.19,0,0,1,.22-.22c.16,0,.25-.11.26-.37a1.24,1.24,0,0,1,.28-.68,7.89,7.89,0,0,0,1.42-2c-.05-.05,0-.2.1-.32s.14-.26,0-.34a1.83,1.83,0,0,0-1.41.34,1,1,0,0,1-.61.22c-.21,0-.39.07-.39.16s-.18.16-.4.16-.4.09-.4.24-.14.24-.32.24-.32.07-.32.15-.36.27-.8.41a2.06,2.06,0,0,0-1.5,1.56c-.06.25-.22.44-.36.44s-.22,0-.05.24.16.3,0,.52a4.68,4.68,0,0,0-.52.88c-.15.33-.34.6-.41.6s-.09.14,0,.32,0,.32-.18.32-.23,0-.06.32.37.32.8.32.6-.06.6-.14Zm1.08-.12a.32.32,0,0,0-.31,0c-.13.05-.09.09.1.1s.26,0,.21-.08Zm1.72-10.46c-.05-.09,0-.16.07-.16a.17.17,0,0,1,.17.16c0,.09,0,.16-.07.16S219.33,89.27,219.28,89.18Zm11.44,13a.16.16,0,1,0-.16.16A.16.16,0,0,0,230.72,102.14Zm7-.64a.16.16,0,1,0-.16.16A.16.16,0,0,0,237.76,101.5Zm-32.67-4.35c.26-.26.24-.45,0-.45s-.62.39-.47.53.28.13.5-.09Zm27.47-1.57c.05-.09,0-.16-.15-.16s-.25.07-.25.16a.16.16,0,0,0,.15.16A.34.34,0,0,0,232.56,95.58Zm-25.08-4.12a2.08,2.08,0,0,1,.1-.64c.13-.39-.08-.49-.35-.16s-.16,1.08.08,1.08.18-.13.17-.28Zm18.84-4.2c.05-.09,0-.16-.07-.16a.17.17,0,0,0-.17.16c0,.09,0,.16.07.16S226.27,87.35,226.32,87.26Zm1.2-1c0-.17-.31-.24-.4-.09s0,.16.15.16.25,0,.25-.07Zm-12.8-2.33a.16.16,0,0,0-.15-.16.34.34,0,0,0-.25.16c-.05.09,0,.16.15.16S214.72,84,214.72,83.9Zm8.89-.79a.37.37,0,0,0-.28-.17c-.11,0-.09.09,0,.24s.42.21.24-.07Zm-4.89-.88c0-.17-.31-.24-.4-.09s0,.16.15.16.25,0,.25-.07Zm-.36-.51a.32.32,0,0,0-.31,0c-.13.05-.09.09.1.1s.26,0,.21-.08ZM45.87,109c.1-.36-.29-.54-.78-.36a1,1,0,0,1-.76-.08c-.58-.3-1-.27-1.28.13-.19.24-.32.29-.4.16s0-.19.06-.19.14-.07.08-.15-.31-.11-.57-.06-.47,0-.47-.17-.25-.35-.4-.1-.59.17-.92-.26-.42-.41-.94-.34c-.34,0-.61,0-.61-.06a.16.16,0,0,1,.17-.14c.09,0,.13-.07.08-.14s-.24-.11-.42-.06-.46-.06-.79-.42c-.48-.52-.71-.61-.88-.34-.05.09.07.23.27.31s.3.15.09.16a1,1,0,0,1-.6-.31,1.12,1.12,0,0,0-.52-.33c-.11,0-.35-.24-.52-.52a1.28,1.28,0,0,0-.69-.57c-.28,0-.34-.12-.26-.37s0-.34-.25-.41-.29-.13-.15-.21.16-.26-.22-.87c-.53-.87-.65-1.15-.61-1.49a.9.9,0,0,0-.14-.59.63.63,0,0,1,.29-.93c.22-.06.21-.09-.09-.19s-.48-.4-.1-.4c.17,0,.22-.09.16-.25a1.47,1.47,0,0,1-.1-.4c0-.08-.11-.15-.24-.15-.32,0-.31-.3,0-.43s.22-.13-.07-.35-.34-.45-.35-1a3,3,0,0,1,.22-1.56c.07-.11.05-.2,0-.2A4,4,0,0,1,33,93.33c.07-.05.05-.29,0-.53a1,1,0,0,1-.08-.59,2.66,2.66,0,0,0,.14-.75,3.57,3.57,0,0,1,.17-.88c.07-.16.05-.28,0-.28s-.16-1.42,0-1.72a.64.64,0,0,0-.07-.53c-.14-.27-.14-.37,0-.48s.17-.2,0-.42a1.89,1.89,0,0,1-.12-.92,36.54,36.54,0,0,0,0-4.37c-.05-1.8,0-2.33.16-2.51s.15-.25.07-.27c-.32-.11-.16-2.84.19-3.29a.82.82,0,0,0,.05-.6c-.06-.25,0-.4.08-.4s.15-.19.07-.6A4.41,4.41,0,0,1,33.76,72a.35.35,0,0,0,.06-.34.27.27,0,0,1,.09-.31.9.9,0,0,0,.17-.62,1.75,1.75,0,0,1,.15-.74.74.74,0,0,0,0-.6c-.12-.31-.09-.37.15-.37a1.26,1.26,0,0,0,.68-.42l.39-.42-.46.11c-.37.09-.44.06-.37-.13a.23.23,0,0,0-.1-.31c-.13,0-.08-.16.13-.33s.29-.25,0-.26-.35-.25.14-.63c.31-.24.35-.33.16-.33s-.26-.14-.26-.52a22.06,22.06,0,0,1,.42-3,7.75,7.75,0,0,0,.12-1.12,3.44,3.44,0,0,1,.12-.88,3.4,3.4,0,0,0,.12-.86,3.07,3.07,0,0,1,.13-.86c.05-.08.12-1.76.15-3.74,0-3.29.08-3.62.37-4a.87.87,0,0,0,.24-.6c0-.11.11-.4.33-.64a1.69,1.69,0,0,0,.41-.59c0-.08.23-.13.51-.11s.53,0,.6-.35c.16-.67,2.55-1.1,3.61-.65a4.55,4.55,0,0,0,.82.22c.76.13,1.75,1.2,1.34,1.46-.2.12.59.88.92.88s.22,0,.07.13,0,.83.49,1.78c.21.38.25.57.12.62s-.11.17.06.43c.34.52.5,1.6.25,1.76s-.14.15,0,.23.13.34,0,.86-.08.83.07,1,.18.34.13.38,0,.27.08.5.1.45,0,.5a1,1,0,0,0-.15,1c.16.16-.29,1.16-.52,1.16a.17.17,0,0,0-.15.18c0,.1.1.14.23.09a.38.38,0,0,1,.4.11,6,6,0,0,1,.19,2.76c-.1.34-.09.56,0,.69a3.74,3.74,0,0,1,.21,1.42,7.78,7.78,0,0,0,.14,1.51c.07.16,0,.28-.07.28a.17.17,0,0,0-.18.16c0,.09.1.16.23.16a.26.26,0,0,1,.23.28,31.8,31.8,0,0,0,.35,3.32,9.47,9.47,0,0,1,.14,1.28,8.8,8.8,0,0,0,.1,1.14c.08.56.06.85-.07.93s-.14.17,0,.35a2.13,2.13,0,0,1,.21,1,1.91,1.91,0,0,0,.22,1,.35.35,0,0,1,.11.37.36.36,0,0,0,.08.37.57.57,0,0,1,.13.41c-.1.43,1.83.73,2.38.36.21-.13.37-.17.37-.08s.44.15,1.16.12a3.18,3.18,0,0,1,1.38.13,2.43,2.43,0,0,0,1,.21,1.66,1.66,0,0,1,.91.21.34.34,0,0,0,.4.06c.23-.09.27-.06.19.15s0,.35.3.53.45.22.5.16,0-.1-.09-.1a.22.22,0,0,1-.19-.24c0-.32,0-.32,1.23.32a5.62,5.62,0,0,0,1.36.56.28.28,0,0,1,.29.31c0,.23.08.28.32.22s.3,0,.23.17.07.32.5.5a3.24,3.24,0,0,0,.83.25c.24,0,.39.11,1.64,1.26a3.91,3.91,0,0,0,.84.66c.07,0,.13.1.13.22s.23.39.51.6a11.7,11.7,0,0,1,2.19,2.18.68.68,0,0,0,.52.36.43.43,0,0,1,.41.31.65.65,0,0,0,.39.41c.17.05.27.16.22.23s0,.18.19.24.23.13.06.24-.13.21.15.47.33.35.09.44-.25.23-.17.68a2,2,0,0,0,.24.73.75.75,0,0,1,.14.44c0,.16.05.29.12.29s.52.77.52,1.05a.36.36,0,0,0,.24.28.46.46,0,0,1,.24.42c0,.24-.1.33-.39.33-.45,0-.67.24-.38.42a.16.16,0,0,0,.25-.06c0-.13.18-.11.45.07.43.28.36.61-.1.49s-.53.51,0,.73c.06,0,.07.21,0,.42s-.18.35-.4.29-.26,0-.21.07a.51.51,0,0,0,.39.15c.35,0,.63.35.35.44a.41.41,0,0,0-.19.38.43.43,0,0,1-.32.41c-.39.1-.47,1-.08,1,.13,0,.24.07.24.16s-.14.16-.32.16-.32.07-.32.15-.14.19-.32.25c-.37.12-.43.4-.08.4.13,0,.24.06.24.14s-.48.4-.76.36c-.11,0-.2,0-.2.13s.1.19.63.23a.35.35,0,0,1,.29.2c0,.12-.21.23-.66.3-.65.1-.71.14-.56.41s.08.62-.19.62c-.09,0-.12-.06-.08-.13s0-.21-.2-.3-.28-.12-.26.26c0,.55.19.81.49.81.13,0,.23.07.23.16s-.43.21-.56,0-.17-.11-.33,0a.72.72,0,0,1-.57.1,1.05,1.05,0,0,0-.8.23c-.52.37-.58.62-.15.62s.71-.37.54-.55,0-.09.2-.06.3.15.28.26.07.19.21.19.2.07.15.16a.53.53,0,0,1-.41.16c-.17,0-.31.07-.31.16s-.14.16-.31.16a.53.53,0,0,1-.41-.16.35.35,0,0,0-.26-.16c-.09,0-.12.07-.06.16s-.36.24-.76.18c-.07,0-.12.05-.12.14s-.59.21-.72,0a.34.34,0,0,0-.25-.16.16.16,0,0,0-.15.16c0,.09.11.16.24.16.35,0,.29.27-.08.37-.18,0-.32.16-.32.25s.12.12.28.07.25-.07.05.17-.28.23-.39.11-.4-.2-.45.19a.55.55,0,0,1-.45.45c-.24.06-.39.2-.38.36s0,.23-.11.19a1.89,1.89,0,0,0-.78.06c-.5.11-.65.1-.65-.06s-.17-.2-.41-.18l-.41,0,.34.28c.46.38.27.65-.29.41s-.75-.4-.52-.68.16-.25-.05-.25-.24.09-.22.2-.2.22-.64.25-.68.12-.68.22-.42.11-1-.12c-.14-.05-.25,0-.25.09s.22.26.48.35c.6.21.63.49,0,.37l-.8-.17c-.2,0-.36,0-.36.09,0,.3-.51.17-.59-.15s-.47-.55-.7-.4a.64.64,0,0,0-.15.46.51.51,0,0,1-.23.46q-.23.09-.14-.14c.1-.27-.28-.31-.54-.06s-.2.13-.28,0-.89-.23-.89,0,.14.16.32.16.32.07.32.16-.32.16-.72.16-.72-.06-.72-.14c0-.24-1.17-.34-1.81-.15s-.64.15-.77-.08-.46-.36-.46,0-.33.42-.69.41c-.11,0-.09-.07.05-.15.29-.18.1-.4-.48-.56-.22-.06-.32,0-.23,0a1.07,1.07,0,0,1,.27.41c.08.22,0,.28-.28.28s-.36-.07-.3-.3Zm3.1-.42c0-.24-.37-.19-.45.06s0,.19.2.16.26-.13.26-.22Zm1.34-.07c.11-.18-.49-.39-.71-.25a.35.35,0,0,0-.16.25c0,.19.75.2.87,0Zm-8.82-.76c.1-.1-.6-.54-.87-.54-.08,0-.14.11-.14.25s.07.21.15.16a.18.18,0,0,1,.25.07.43.43,0,0,0,.61.06Zm19.39-.38c.05-.09,0-.16-.07-.16a.17.17,0,0,0-.17.16c0,.09,0,.16.07.16S60.83,107.51,60.88,107.42Zm.88-.48a.16.16,0,0,0-.15-.16.34.34,0,0,0-.25.16c-.05.09,0,.16.15.16S61.76,107,61.76,106.94ZM37,106a1.35,1.35,0,0,0-.64-.15c-.37,0-.37,0-.08.15a2.09,2.09,0,0,0,.64.15C37.14,106.14,37.16,106.11,37,106Zm14.47-.06a3.7,3.7,0,0,0,1.15-.11c.51-.1,1.19-.21,1.5-.23a19.83,19.83,0,0,0,7.12-2.24c2.91-1.36,4-2.45,5.12-5.3a2.43,2.43,0,0,0,.18-1.28c-.05-.34-.14-1.19-.19-1.89a6.81,6.81,0,0,0-.24-1.54C66,93.19,66,93,66,93s-.07-.35-.25-.67a1.9,1.9,0,0,1-.29-.85c0-.14-.12-.34-.32-.45a2.68,2.68,0,0,1-.73-.68,9.71,9.71,0,0,0-1-1.11,2.2,2.2,0,0,1-.67-.87A.41.41,0,0,0,62.4,88q-.32-.08-.22-.34c.07-.19,0-.26-.28-.26-.5,0-.92-.34-.88-.71,0-.2-.13-.35-.45-.45a2.6,2.6,0,0,1-.73-.38.94.94,0,0,0-.51-.22.5.5,0,0,1-.39-.21,4.07,4.07,0,0,0-1.09-.67,4.56,4.56,0,0,1-1-.58,2.42,2.42,0,0,0-.72-.42,5,5,0,0,1-1-.63c-.35-.31-.56-.33-3.7-.33a19,19,0,0,1-3.66-.17,2.08,2.08,0,0,0-.82-.17A3.69,3.69,0,0,1,45.54,82c-1-.54-1.12-.88-1.31-2.72A6.09,6.09,0,0,0,44,78c-.15-.29-.24-.88-.56-3.75a15.8,15.8,0,0,1-.16-2.27.25.25,0,0,0-.08-.29,1.74,1.74,0,0,1-.14-.93A23,23,0,0,0,42.8,68a82.51,82.51,0,0,1-.21-11.28c.23-3.76-.7-5.67-2.67-5.53a9.77,9.77,0,0,0-1.36.2l-.56.14.53.19c.52.18.57.52.08.52-.15,0,0,.19.35.48s.52.48.42.48a.22.22,0,0,0-.18.24c0,.13.08.24.18.24s.13.06,0,.22-.12.27.06.42.2.26.15.34,0,.19.16.24a.39.39,0,0,1,.25.32c0,.18-.06.19-.33,0s-.36-.16-.56.11c-.33.44-.29.6.13.5.2,0,.27,0,.16,0-.29.13-.24.72.08,1s.21.2,0,.13c-.46-.16-.28,1.32.33,2.56.3.63-.15,1.6-.67,1.43-.24-.08-.31,0-.25.11s.27.2.51.19.42,0,.38.32-.13.38-.69.18c-.26-.1-.24,0,.13.36a1,1,0,0,1,.33,1.18,1.71,1.71,0,0,1-.35.88c-.17.13-.19.21-.05.29.29.18.06.39-.34.31s-.34-.06-.08.15.22.43-.26.44c-.25,0-.21.06.19.23s.71.75.36,1a.19.19,0,0,0-.07.26.4.4,0,0,1-.1.4c-.13.16-.15.29,0,.4a.7.7,0,0,1,.09.54c-.05.28-.21.4-.62.48s-.54.17-.54.56.06.44.31.38a.61.61,0,0,0,.39-.4c0-.18.15-.28.23-.23s.09.37,0,.82c-.16.71-.32.88-.51.56a.45.45,0,0,0-.35-.16c-.2,0-.21,0-.05.24a.76.76,0,0,0,.51.24c.24,0,.29.07.21.33a6.17,6.17,0,0,0-.17.92c-.15,1.29-.24,2.23-.3,3a7.38,7.38,0,0,1-.23,1.33,1.56,1.56,0,0,0-.08.76c.06.16,0,.2-.16.14-.34-.13-1,.54-.77.77s.26.1.47-.1a1.28,1.28,0,0,1,.38-.27c.17,0,0,.7-.16.76s-.18.25-.18.49,0,.39.15.11.14-.31.15,0a2.22,2.22,0,0,0,.11.6c.06.17,0,.25-.16.25s-.33.18-.08.43a.75.75,0,0,1,.12.55c0,.32-.13.37-.57.33-.68-.07-.66.18,0,.61.48.3.53.39.39.66a1,1,0,0,1-.4.4c-.29.11-.14.37.22.37s.27.15.27.79,0,.8-.31.84c-.46.07-.53.46-.08.41s.37,0,.42.52a.8.8,0,0,1-.23.78c-.22.17-.23.24-.06.3s.18.1,0,.21-.17.18,0,.32a.41.41,0,0,1,.11.39.26.26,0,0,0,.08.3c.09.06.11.28,0,.54a3.24,3.24,0,0,0-.05,1c.06.48,0,.58-.17.51s-.27,0-.34.32c-.12.48.13,1,.47,1s.31.19.13.37a1.91,1.91,0,0,0-.16.71,1.29,1.29,0,0,1-.33.81c-.25.19-.25.2,0,.2s.32.1.31.72c0,.4.05.72.13.72s0,.16-.16.35-.28.34,0,.25.28,0,.28.26a1,1,0,0,1-.2.57c-.15.16-.15.23,0,.28a.21.21,0,0,1,.11.28.28.28,0,0,0,.1.32c.13.08.11.22-.07.5s-.19.39-.12.39a2.83,2.83,0,0,1,.15,1.21,3.27,3.27,0,0,0,.23,1.47c.19.23.17.24-.15.07s-.52,0-.16.25a4.55,4.55,0,0,1,1.15,2.15c-.26.43,2,1.8,3.65,2.2a43,43,0,0,0,4.31.35c2,.09,3.58.19,3.62.22a1.17,1.17,0,0,0,.54-.08,1.45,1.45,0,0,1,.69-.05Zm.53-4c.31-.31.22-.46-.19-.36-.21.05-.43,0-.49-.08a.45.45,0,0,0-.35-.17c-.13,0-.2.07-.14.16s-.06.16-.24.16a18,18,0,0,1-3.2-.8.36.36,0,0,0-.41,0,.31.31,0,0,1-.38,0q-.24-.15,0-.15a.19.19,0,0,0,.2-.16c0-.23-.76-.2-.84,0s-.17.12-.43-.06-.35-.26-.07-.43.26-.18.21-.19l-.39-.07a.73.73,0,0,1-.45-.31.47.47,0,0,0-.31-.25,2.14,2.14,0,0,1-.93-.95,2.32,2.32,0,0,0-.24-.59A2.11,2.11,0,0,1,43,97a1.35,1.35,0,0,0-.25-.6c-.3-.43-.49-3.64-.23-3.8s.12-.17,0-.31-.1-.26.07-.41.2-.26.07-.42-.09-.25.2-.39a1.67,1.67,0,0,0,.63-.68,2.19,2.19,0,0,1,2-1.21c.72,0,1.56-.15,1.44-.33s1.56-.31,1.89-.13a.44.44,0,0,0,.55-.06c.2-.17.27-.17.32,0s.68.27.68,0,.16-.14.44-.07a3.79,3.79,0,0,0,.78.1.77.77,0,0,1,.54.23.68.68,0,0,0,.45.24A7.34,7.34,0,0,1,55,90.41a.21.21,0,0,0,.27.12c.23-.09.9.45.9.71,0,.1.12.18.26.18s.22.09.17.24,0,.24.24.24.3.08.25.23a.25.25,0,0,0,.14.32.37.37,0,0,1,.23.32.39.39,0,0,0,.24.32c.15.06.23.27.21.56a1.15,1.15,0,0,0,.16.7c.11.13.14.28.09.33s0,.23.14.39a1.76,1.76,0,0,1,.09,1.6c-.11.13-.1.2,0,.2a.17.17,0,0,1,.18.16c0,.09-.11.16-.24.16s-.34.72-.08.88c.09.06,0,.24-.15.43s-.35.3-.56.13-.3-.16-.36-.1a.15.15,0,0,0,0,.22c.36.26.23.63-.28.78s-.52.24-.51.49-.06.31-.2.25-.18,0-.12.16,0,.23-.24.16-.33,0-.33.18,0,.25-.36,0a1.3,1.3,0,0,0-.68-.23c-.28,0-.29,0,0,.09.44.12.22.45-.26.4-.23,0-.43,0-.43.12s-.12.17-.26.17a1.68,1.68,0,0,0-.73.4c-.49.41-1.19.59-.8.21Zm.79-.38a.32.32,0,0,0-.31,0c-.13.05-.09.09.1.1s.26,0,.21-.08Zm-1-3.17a2.22,2.22,0,0,0,.84-.31c.23-.15.49-.23.57-.18.26.16,1.3-.1,1.22-.31a.84.84,0,0,1,.22-.58,1,1,0,0,0,.21-.81,1.23,1.23,0,0,1,.07-.71c.12-.21.09-.39-.1-.68s-.21-.41-.06-.46c.34-.11.22-.31-.32-.53a5.44,5.44,0,0,1-1-.53C53,93,53,93,53.25,92.77s.26-.21,0-.31a1.22,1.22,0,0,0-.64,0,1.73,1.73,0,0,1-.72,0c-.29-.07-.33-.14-.19-.31s.1-.27-.72,0c-.53.15-.65.13-.77-.08s-.17-.23-.39,0-.88.32-.75,0,0-.23-.33-.14a.79.79,0,0,1-.66-.09c-.2-.16-.24-.14-.24.16s-.06.33-.28.24c-.41-.18-1.42-.29-1.28-.14s0,.27-.16.43a2.06,2.06,0,0,0-.31,1.29,8.82,8.82,0,0,1-.05,1,1.4,1.4,0,0,0-.07.38c0,.26.05.41.26.46s.27.17.22.29a.27.27,0,0,0,.08.32.26.26,0,0,1,.09.31c0,.11.1.36.31.54a1.12,1.12,0,0,1,.39.54c0,.18.3.32,1.84.89a4.18,4.18,0,0,0,1.44.09l1.39-.13Zm2.53-5.21c0-.09-.11-.16-.24-.16s-.24.07-.24.16.11.16.24.16S54.24,93.27,54.24,93.18ZM49.6,91.5a.24.24,0,0,0-.24-.24c-.25,0-.32.19-.13.37S49.6,91.75,49.6,91.5Zm4.32,10.08c.81-.44,1-.47,1-.23s-.06.13-.14.08-.27.06-.42.23a1.06,1.06,0,0,1-.7.31c-.37,0-.33-.05.3-.39ZM48,101.49c0-.09.07-.12.16-.07s.16.13.16.17-.07.07-.16.07A.17.17,0,0,1,48,101.49ZM37.19,90.93c-.15-.25.06-.4.26-.2s.12.2,0,.27a.2.2,0,0,1-.27-.07Zm2.72-32.47c.05-.09.13-.16.17-.16s.07.07.07.16a.17.17,0,0,1-.17.16C39.9,58.62,39.87,58.55,39.92,58.46ZM62,105.73a.32.32,0,0,0-.31,0c-.13.05-.09.09.1.1s.26,0,.21-.08Zm4.44-2.3a.34.34,0,0,0-.25-.16.16.16,0,0,0-.15.16c0,.09.11.16.25.16S66.53,103.51,66.48,103.42Zm1-1.76c0-.09-.11-.16-.25-.16s-.2.07-.15.16a.34.34,0,0,0,.25.16A.16.16,0,0,0,67.52,101.66ZM69,93.35a.33.33,0,0,0-.48-.25.18.18,0,0,0-.07.25c.12.19.55.19.55,0Zm-1.6-4.56c0-.17-.31-.24-.4-.09s0,.16.15.16.25,0,.25-.07ZM33.72,86.85a.32.32,0,0,0-.31,0c-.13.05-.09.09.1.1s.26,0,.21-.08Zm11.56-6a.16.16,0,1,0-.16.16A.16.16,0,0,0,45.28,80.86ZM37.8,71c-.1-.16-.33.32-.34.71,0,.13.09.06.21-.16A.76.76,0,0,0,37.8,71Zm-.2-2.81a.16.16,0,1,0-.16.16A.16.16,0,0,0,37.6,68.22Zm1.72-5.15c-.1-.3-.44-.35-.44-.06a.25.25,0,0,0,.25.25c.14,0,.22-.09.19-.19Zm.12-2.84a.28.28,0,0,0-.33-.06c-.33.13-.29.22.09.22.18,0,.29-.07.23-.15Zm.24-.5a.75.75,0,0,0-.27-.33c-.21-.17-.28-.18-.33,0a.33.33,0,0,1-.29.2c-.5,0-.19.24.33.25.31,0,.56,0,.56-.1Zm-.84-5.21a.32.32,0,0,0-.31,0c-.13.05-.09.09.1.1s.26,0,.21-.08Zm15.53,54.71a.32.32,0,0,1,.31,0c.05.05,0,.09-.21.08s-.22,0-.1-.1Zm38.17-.34c.14-.23-.82-.33-1.3-.13a.86.86,0,0,1-.72,0,4.38,4.38,0,0,0-1-.28c-.47-.07-.69-.19-.75-.41s-.22-.31-.72-.31a5.5,5.5,0,0,1-3.4-1.74,3.67,3.67,0,0,0-.84-.7.42.42,0,0,1-.27-.34.58.58,0,0,0-.32-.41.58.58,0,0,1-.32-.41c0-.13-.07-.23-.16-.23s-.23-.18-.32-.4-.23-.4-.33-.4-.14-.11-.09-.23a.28.28,0,0,0,0-.32c-.08,0-.17,0-.2.1-.1.31-.44,0-.44-.43a.65.65,0,0,0-.16-.48.57.57,0,0,1-.16-.43,1.66,1.66,0,0,0-.54-.84c-.6-.57-1-1.19-.93-1.49,0-.11-.07-.2-.21-.2-.29,0-.3-.08-.08-.49S79.32,98,79,98s-.86-.39-.59-.56a.34.34,0,0,1,.33,0c.09.05.16,0,.16-.07a.17.17,0,0,0-.17-.17c-.32,0-.83-.62-.87-1.07s-.36-1.33-.55-1.33-.08-.53.22-.64.24-.14.11-.22a.63.63,0,0,1-.19-.48.85.85,0,0,0-.12-.48.65.65,0,0,1,0-.79c.09-.08,0-.1-.11,0-.31.1-.52-.13-.36-.39a4.5,4.5,0,0,0,.1-1.82,4.36,4.36,0,0,1-.12-1c0-.69,0-.88.26-1s.27-.24.14-.74a2.26,2.26,0,0,1,0-1c.06-.23.13-.49.15-.58.14-.73.27-.83.91-.79a1.85,1.85,0,0,1,.92.29,2.77,2.77,0,0,0,.78.43c.28.1.51.28.51.4s.18.27.4.32c.53.13.51.35,0,.43s-.4.07.08.09c.7,0,1,.57.71,1.42a6.11,6.11,0,0,0-.17,1.48,10.1,10.1,0,0,1,0,1,.45.45,0,0,0,0,.24,11.35,11.35,0,0,1,.09,1.2c.08,1.56.19,3.18.23,3.28a.45.45,0,0,1,0,.2c0,.07.09.17.22.22a.37.37,0,0,1,.24.29,4,4,0,0,0,.41,1,2.11,2.11,0,0,1,.33,1,.29.29,0,0,0,.11.34c.29.18.63.84.43.84a.16.16,0,0,0-.16.16c0,.09.13.16.29.16s.37.21.51.55a1.33,1.33,0,0,0,.43.63.35.35,0,0,1,.21.3.94.94,0,0,0,.32.51.94.94,0,0,1,.32.49.74.74,0,0,0,.22.42,1.67,1.67,0,0,1,.33.57c.06.19.2.35.32.35a1,1,0,0,1,.51.34,2.33,2.33,0,0,0,.62.48c.18.08.64.35,1,.59a5.05,5.05,0,0,0,2.57.64c2.48.25,3.51.24,4.25-.07a18.92,18.92,0,0,0,3.07-1.53c.38-.25.88-.56,1.12-.69a11.86,11.86,0,0,0,3.17-3.37l.83-1.6a6.34,6.34,0,0,0,.5-1.48,41.45,41.45,0,0,0,.09-6.06,18.1,18.1,0,0,0-.74-3.19.23.23,0,0,1,0-.28.76.76,0,0,0,.15-.36c.08-.54.23-.7.63-.7s.4-.07.34-.22.26-.37,1.07-.26a1,1,0,0,1,.92.64c.2.37.24.59.12.66s0,.25.32.46c.57.4.66.72.16.57-.3-.09-.31-.07-.15.23s.49.43.78.14c.11-.11.19-.12.19,0s-.16.26-.36.38l-.36.23.48.21c.27.12.36.21.21.21-.41,0-.52.32-.19.56s.25.26.09.46-.15.26.09.34.28.25.26,1a3.87,3.87,0,0,1-.12,1,.19.19,0,0,0,.07.26.21.21,0,0,1,0,.29,1.27,1.27,0,0,0-.07.63c0,.28,0,.44-.17.45s-.09.11.12.28.3.36.27.46a.26.26,0,0,0,.11.29.53.53,0,0,1-.07.83c-.36.14-.29.38.12.39.25,0,.16.08-.28.22s-.52.22-.31.23c.45,0,.51.11.43.57a.65.65,0,0,1-.42.48c-.32.09-.32.11-.06.26s.25.21-.12.89a1.86,1.86,0,0,0-.32.85c0,.07,0,.17-.14.22s-.19.22-.14.42,0,.33-.16.33-.22.1-.16.32-.18.45-.35.16a.36.36,0,0,0-.27-.16c-.11,0-.11.08,0,.23s.14.26,0,.34a.29.29,0,0,0-.09.34c.07.17,0,.2-.33.12s-.41-.07-.32.3,0,.42-.22.49-.45.43-.16.43.11.51-.48.88c-.35.22-.64.48-.64.56a.19.19,0,0,1-.21.16,2.62,2.62,0,0,0-.84.46,5,5,0,0,1-1.11.61,1.16,1.16,0,0,0-.64.5c-.16.35-.35.42-1,.37-.2,0-.36,0-.36.13s-.94.63-1.6.69c-.34,0-.54.12-.52.25s-.14.2-.42.2a1,1,0,0,0-.64.22c-.13.15-.63.22-1.74.23a11.61,11.61,0,0,0-1.94.13c-.26.08-.35.06-.28-.06Zm12.26-5a.16.16,0,0,0-.15-.16.34.34,0,0,0-.25.16c-.05.09,0,.16.15.16S104.8,104,104.8,103.9Zm2.4-4.32a.16.16,0,1,0-.16.16A.16.16,0,0,0,107.2,99.58ZM82.32,97c.05-.09,0-.16-.07-.16a.17.17,0,0,0-.17.16c0,.09,0,.16.07.16S82.27,97.11,82.32,97Zm-3.52-.8c.05-.09,0-.16-.15-.16s-.25.07-.25.16a.16.16,0,0,0,.15.16A.34.34,0,0,0,78.8,96.22ZM105.28,86c0-.09-.11-.11-.24-.06s-.24.12-.24.15.11.06.24.06.24-.07.24-.15ZM57.89,108.59a.32.32,0,0,1,.31,0c.05.05,0,.09-.21.08s-.22,0-.1-.1Zm106.91-2c0-.07.2-.16.44-.19s.36-.07-.12-.09a4.08,4.08,0,0,0-1.08.12c-.41.12-.52.1-.52-.08s-.17-.23-.49-.23-.52-.09-.58-.33-.18-.31-.44-.24-.46,0-.79-.46a2.27,2.27,0,0,0-.75-.65c-.23-.07-.29-.19-.21-.42a.66.66,0,0,0-.17-.62.64.64,0,0,1-.18-.55.25.25,0,0,0-.14-.34c-.13,0-.19-.16-.14-.25a.26.26,0,0,0-.12-.32c-.17-.12-.18-.17,0-.24s.25-.37-.06-.37-.23-.1-.17-.32a2,2,0,0,0-.09-.88c-.14-.47-.13-.61.12-.88s.21-.32.12-.32-.15-.25-.12-.6a1.6,1.6,0,0,0-.07-.76A2.17,2.17,0,0,1,159,96a.42.42,0,0,0,0-.54c-.3-.56-.2-1,.27-1.18l.44-.19-.44-.06c-.46-.06-.59-.31-.23-.45s.2-1.14-.23-1.49-.38-.31-.06-.56.27-.28.12-.38-.13-.21.1-.44.3-.32,0-.65-.28-.41-.14-.67a.81.81,0,0,0,.08-.58c-.06-.17,0-.25.17-.25s.22-.07.14-.2a1.08,1.08,0,0,1,0-1c.09-.11.09-.22,0-.28s-.11-.25-.06-.44A.49.49,0,0,0,159,86c-.26-.19-.26-.22,0-.31s.2-.54-.11-.74c-.11-.07-.07-.22.11-.41s.23-.34.08-.49-.11-.19.16-.19.35-.1.35-.22a.7.7,0,0,1,.26-.43c.23-.19.22-.24-.1-.5a1.31,1.31,0,0,0-.67-.29c-.2,0-.27-.07-.19-.19a4.28,4.28,0,0,0,.17-1.16c0-.53.05-1,.06-1.13a3.56,3.56,0,0,0-.22-1.71c-.12-.07-.08-.15.09-.21s.23-.16.08-.41-.15-.34,0-.45.11-.49-.19-.49-.23-1.5,0-1.82a.41.41,0,0,0,.11-.4c-.05-.09,0-.23.17-.31s.24-.16-.06-.25-.31-.2-.25-.79,0-.76-.18-.94-.33-.44,0-.44.33-.26.1-.35a1.62,1.62,0,0,1-.22-.8c-.06-.58,0-.77.16-.84s.2-.12,0-.3-.25-.27-.1-.56.14-.35.09-.35,0-.14.07-.31.11-.35,0-.41a.28.28,0,0,1-.06-.33c.05-.13,0-.24-.13-.24s-.13-.07.07-.22.23-.25.11-.33-.14-.28-.09-.49,0-.42-.07-.47-.11-.2,0-.39a.55.55,0,0,0-.09-.63c-.2-.28-.21-.45-.06-.9s.25-.56.33-.56a.15.15,0,0,0,.15-.16c0-.09-.16-.16-.35-.16s-.31,0-.17-.18a.4.4,0,0,0,.1-.39.8.8,0,0,1,.1-.54c.13-.24.13-.33,0-.33s0-.67.3-.9.2-.21-.1-.39-.3-.27-.18-.41a2,2,0,0,0,.2-.86,1.24,1.24,0,0,1,.25-.79c.16-.1.13-.16-.12-.24s-.33-.22-.3-.62a1.12,1.12,0,0,1,.17-.61,5.67,5.67,0,0,0,0-2.22.83.83,0,0,1,.1-.55c.13-.28.13-.47,0-.61a2.75,2.75,0,0,1,.12-1.78.38.38,0,0,0,0-.37.61.61,0,0,1,.18-.52.8.8,0,0,0,.24-.43,1,1,0,0,1,.41-1,1.14,1.14,0,0,0,.4-.56c0-.16.3-.21,1.24-.19.68,0,1.6,0,2,0,.73-.06.84,0,1.28.46a1.75,1.75,0,0,0,.68.52c.11,0,.16.1.11.23s0,.27.21.32a9,9,0,0,1,1.72,3.54c0,.3.1.58.21.62s.2.32.2.62a3.77,3.77,0,0,0,.16,1,11.81,11.81,0,0,1,.31,1.58,28.73,28.73,0,0,0,.75,3.61,7.37,7.37,0,0,1,.23,1.38c0,.28.1.53.23.58s.21.15,0,.53-.2.46,0,.58a.74.74,0,0,1,.06,1c-.12.08-.11.15,0,.24s.22.55.22,1.67.07,1.57.19,1.65a3,3,0,0,1,0,1.9.21.21,0,0,0,0,.29.28.28,0,0,1,.07.33c0,.13,0,.23.07.23s.2.21.25.47c.15.77.76,1,2.41,1.08a11,11,0,0,1,1.67.12.48.48,0,0,0,.43-.08,11.64,11.64,0,0,1,3.76.33,32.55,32.55,0,0,0,3.28.39.3.3,0,0,1,.32.25c0,.17.13.22.44.19a3.65,3.65,0,0,1,2.12.68,13.29,13.29,0,0,0,1.24.73c.42.22.67.43.56.46s.09.15.44.25.65.27.69.53.21.39.56.48a.79.79,0,0,1,.66.64,1,1,0,0,0,.45.61c.16.05.26.19.22.3s.42.73.71.73c.09,0,.12.08.06.17a.4.4,0,0,0,.09.4c.11.13.15.28.1.34s.07.26.28.46.34.4.21.54-.12.18.05.18.63.67.63,1a1.29,1.29,0,0,0,.32.48c.18.19.29.43.25.54a.38.38,0,0,0,.15.38.73.73,0,0,1,.24.45c.1,1.66.2,2.08.54,2.17s.3.13.15.28-.13.24.08.4.23.24.06.35-.18.21,0,.52a1.65,1.65,0,0,0,.35.48c.21.14-.15.78-.44.78a.15.15,0,0,0-.14.22.32.32,0,0,0,.38.15c.21-.06.29,0,.27.22,0,.38-.3.57-.45.33s-.17-.14-.23-.08,0,.21.07.33.13.27-.06.42-.31.48,0,.73.25.23-.13.58-.37.44-.25.63.06.38-.2.75-.31.5-.26.5c.26,0-.46.78-.8.87s-.55.41-.22.41c.09,0,.12.08.06.17a.28.28,0,0,1-.32.09.27.27,0,0,0-.31.07c-.05.08,0,.15.11.16.67,0,.73.68.08.86-.27.08-.3.13-.13.24s.16.18-.11.32a1.53,1.53,0,0,1-.58.18.58.58,0,0,0-.42.32.63.63,0,0,1-.49.32c-.17,0-.31.1-.31.23s-.22.27-.48.33c-.52.11-.81.4-.41.4.14,0,.25.07.25.16s-.2.16-.45.16c-.6,0-1.33.35-1.24.6a.14.14,0,0,1-.14.2.66.66,0,0,0-.41.24c-.11.13-.27.2-.35.14s0-.19.14-.31c.39-.29.14-.49-.34-.27a.49.49,0,0,0-.34.6c0,.34-.05.46-.45.64a5.73,5.73,0,0,1-.91.3,2.22,2.22,0,0,0-.85.49,1.68,1.68,0,0,1-.59.4c-.08,0-.15.11-.15.24a.28.28,0,0,1-.3.24.74.74,0,0,0-.5.24.55.55,0,0,1-.56.15,2.15,2.15,0,0,0-1.09.24,3.71,3.71,0,0,1-1,.33c-.33,0-.73.37-.57.53s-.07.14-.28.18l-1.06.25a12.37,12.37,0,0,0-3.28,1c-.55.24-.86.12-.41-.15.13-.08.09-.15-.12-.24-.53-.21-1.19-.16-1.29.1a.53.53,0,0,1-.47.24c-.21,0-.38.07-.38.16s-.11.16-.24.16-.24-.08-.24-.18-.21-.14-.68-.06a7.37,7.37,0,0,1-1,.12,3.79,3.79,0,0,0-.88.17,4.65,4.65,0,0,1-1.25.15c-.56,0-.66,0-.52.19s0,.21-.71.21c-.48,0-.88-.06-.88-.13Zm12.32-2.07c0-.09-.11-.16-.24-.16s-.24.07-.24.16.11.16.24.16S177.12,104.63,177.12,104.54Zm-10.93-1.6c1.07-.17,1.26-.2,4-.47a17.32,17.32,0,0,0,2.24-.32c.22-.08.9-.26,1.52-.4a26.55,26.55,0,0,0,5-1.64,41.85,41.85,0,0,0,5.36-2.85,15.27,15.27,0,0,1,1.68-1.05,11.61,11.61,0,0,0,3.12-2.39c.05-.17.16-.31.23-.31s.17-.24.21-.53a10.85,10.85,0,0,1,.93-2.39,4.23,4.23,0,0,0-.36-2.91,1.85,1.85,0,0,1-.13-.82,1.19,1.19,0,0,0-.32-.95c-.17-.16-.28-.34-.24-.41a2.65,2.65,0,0,0-.74-1.43c-.08,0-.14-.18-.14-.4s-.07-.4-.17-.4-.21-.13-.26-.28a4.09,4.09,0,0,0-.89-1.64,5.57,5.57,0,0,1-1.15-1c-1.18-1.19-1.45-1.42-1.61-1.42a3.08,3.08,0,0,1-.73-.48,2.54,2.54,0,0,0-.79-.48,3.36,3.36,0,0,1-.83-.33,7.55,7.55,0,0,0-2.67-.49,14.94,14.94,0,0,1-2.35-.31,1.67,1.67,0,0,0-.64-.13c-.91,0-6.76-.2-7-.28a5.07,5.07,0,0,1-1.08-.74c-.6-.5-.72-.69-.58-.86s.12-.22-.07-.22-.28-.22-.36-.68a2.74,2.74,0,0,0-.25-.85,17.65,17.65,0,0,1-.86-3.91,12.72,12.72,0,0,0-.15-1.36c-.1-.5-.56-4.4-.54-4.55a.94.94,0,0,0-.08-.33,29.51,29.51,0,0,1-1-4.87,17.77,17.77,0,0,0-.31-2.25c-.13-.62-.26-1.23-.28-1.36a.59.59,0,0,0-.18-.35,2.48,2.48,0,0,1-.27-1.36.51.51,0,0,0-.24-.44c-.26-.1-.75.4-.78.82a18.24,18.24,0,0,1-.34,2.33c-.12.2-.12,8.08,0,10.68.07,1.36.15,3.52.18,4.8s.11,3.47.17,4.88.13,5,.16,7.92.05,5.54.06,5.76,0,1.12,0,2,0,1.6,0,1.6.18,3.12.16,4.08c0,1.51-.09,2-.3,2.29s-.14.27-.08.32,0,.21-.1.34a.55.55,0,0,0-.11.49.25.25,0,0,1-.14.34c-.27.1-.25.53,0,.78a1,1,0,0,1,.24.56c0,.34.18.42.93.58a6.21,6.21,0,0,0,2.83.06Zm4.94-4.81a3.56,3.56,0,0,0-.78-.31,2.82,2.82,0,0,1-.77-.56,2.89,2.89,0,0,0-.77-.56c-.32,0-.45-1.68-.27-3.36.05-.48.13-1.56.18-2.4a12.31,12.31,0,0,1,.56-3.61,11.52,11.52,0,0,0,.47-2.35c0-.07.17-.12.38-.12a1.55,1.55,0,0,0,.79-.32,1.55,1.55,0,0,1,.57-.32c.09,0,.21-.21.26-.47a.85.85,0,0,1,.33-.55.45.45,0,0,0,.23-.4.55.55,0,0,1,.17-.42.27.27,0,0,0,.09-.31c0-.12.07-.25.28-.3a1,1,0,0,0,.55-.5,1.41,1.41,0,0,1,.63-.6,2.74,2.74,0,0,0,.79-.58c.31-.35.42-.38,1.2-.27.47.06,1.07.13,1.34.14a1,1,0,0,1,.58.17,4.17,4.17,0,0,0,1.36.21,3.33,3.33,0,0,1,1.31.22c0,.08.29.15.59.15a1,1,0,0,1,.83.37,3.49,3.49,0,0,0,.81.67c.29.17.52.36.52.43s.11.13.24.13a.23.23,0,0,1,.24.22.39.39,0,0,0,.25.32c.14.05.21.16.16.24a2.61,2.61,0,0,0,.31,1.05,2.49,2.49,0,0,1,.31,1.06.37.37,0,0,0,.09.38,1.63,1.63,0,0,1,0,1.59,1.54,1.54,0,0,0-.16.9c.08.41-.06.75-.93,2.23a5.57,5.57,0,0,1-.46.66c-.13.16-.46.59-.72,1a12,12,0,0,1-2.75,2.65c-.29.16-.53.36-.53.46s-.29.32-.64.48-.64.36-.64.43-.1.12-.23.12a1.71,1.71,0,0,0-.7.4,1.79,1.79,0,0,1-.66.4,3.29,3.29,0,0,0-.9.49,3.93,3.93,0,0,1-1.31.58,2.3,2.3,0,0,0-.78.24,3.15,3.15,0,0,1-2.36,0Zm2.66-4.25a2,2,0,0,1,.69-.22.38.38,0,0,0,.34-.22,3.19,3.19,0,0,1,1-.68c.52-.26,1-.55,1-.64s.22-.22.5-.28.47-.17.41-.32.42-.78.89-.95a.41.41,0,0,0,.28-.33.42.42,0,0,1,.31-.33,1.65,1.65,0,0,0,.64-.61l.48-.75a5.11,5.11,0,0,0,.74-1.9.18.18,0,0,1,.05-.25,1.44,1.44,0,0,0,.25-.69c.11-.66-.26-1.8-.58-1.8a.88.88,0,0,1-.44-.22,2.81,2.81,0,0,0-2-.42.42.42,0,0,1-.53,0,1.38,1.38,0,0,0-.53-.17A7.19,7.19,0,0,0,175,85.21a.47.47,0,0,1-.16.37,1,1,0,0,0-.16.66,2.72,2.72,0,0,1-.27,1.07,1.73,1.73,0,0,0-.23.79c0,.15,0,.28-.11.28s-.2.17-.25.38a2.76,2.76,0,0,1-.73,1c-.35.31-.56.59-.48.62s.09.41,0,1-.18,1.09-.19,1.28a1.14,1.14,0,0,1-.16.53.19.19,0,0,0,0,.29c.09.06.12.29.07.51-.1.39-.08.4.44.29a4.81,4.81,0,0,0,1-.34ZM190.48,97a.37.37,0,0,0-.29-.16c-.11,0-.09.06,0,.16.31.2.36.2.24,0Zm.48-.48c.05-.09,0-.16-.07-.16a.17.17,0,0,0-.17.16c0,.09,0,.16.07.16S190.91,96.63,191,96.54ZM160.48,50.29a.16.16,0,0,0-.16-.15c-.09,0-.16.11-.16.25s.07.2.16.15A.34.34,0,0,0,160.48,50.29Zm1-.31c0-.09-.16-.16-.36-.16s-.31,0-.12.16.48.2.48,0ZM63.31,106.36c-.17-.17,0-.37.29-.27s.23,0,.23-.17.12-.31.61,0,.36.21-.26.39-.75.22-.88.09ZM172.25,106a.18.18,0,0,1,.07-.25.33.33,0,0,1,.48.25c0,.19-.43.2-.55,0Zm56.51-.33c0-.18,0-.32,0-.32s.2.14.31.32.16.32,0,.32-.26-.14-.31-.32Zm-48-1.87a.32.32,0,0,1,.31,0c.05.05,0,.09-.21.08s-.22,0-.1-.1Zm-112.05-13c.05-.09.13-.16.17-.16s.07.07.07.16a.17.17,0,0,1-.17.16C68.7,90.94,68.67,90.87,68.72,90.78ZM91.4,89A.53.53,0,0,1,91,88.6a1.13,1.13,0,0,0-.28-.59c-.26-.3-.26-.31,0-.22s.32,0,.37-.05,0-.15-.06-.15c-.31,0-.68-1.09-.57-1.71.06-.34.13-1.73.16-3.09s.06-2.48.07-2.48,0-.72.05-1.6a8.79,8.79,0,0,1,.15-1.79,2.31,2.31,0,0,0,.14-.8c0-.83.38-1.33.93-1.33a1,1,0,0,1,.66.26,1.64,1.64,0,0,0,.58.4c.2.08.37.24.37.37a.38.38,0,0,0,.24.32.44.44,0,0,1,.24.39.7.7,0,0,0,.11.41,8.4,8.4,0,0,1,0,2.53c0,.38-.1,2.39-.14,4.45a41.46,41.46,0,0,1-.2,4.24c-.13.43-.21.48-.89.53-.41,0-.75.11-.75.18s-.38.3-.76.15Zm125.37-7.45a.32.32,0,0,1,.31,0c.05.05,0,.09-.21.08s-.22,0-.1-.1ZM102.18,75.78a.65.65,0,0,0-.39-.12.28.28,0,0,1-.29-.2c0-.11,0-.27,0-.36s-.14-.16-.28-.16-.22-.09-.16-.26a.55.55,0,0,0-.09-.49,1.53,1.53,0,0,1-.05-1.55,2.43,2.43,0,0,1,.88-.66,1.41,1.41,0,0,1,1.27-.1,2.3,2.3,0,0,1,1.65,1.56,1.44,1.44,0,0,1-.1,1.4c-.36.82-.75,1-1.32.73-.32-.17-.43-.16-.67.06s-.35.21-.41.15ZM83.06,74.14a2,2,0,0,1-1.46-1.68c-.1-.44-.25-1-.33-1.27-.18-.59,0-.76,1.1-1.12l.84-.27.84.43c.86.44,2.2,1.71,2.2,2.08a.3.3,0,0,0,.19.27c.25.08.07.77-.35,1.3s-.84.59-.69.19-.4-.32-1,0-.54.26-1.32.08Zm62.35-18.09c-.11-.33-2.37-.83-2.91-.64a3.13,3.13,0,0,1-.84.16c-.41,0-1-.46-.92-.67s-.1-.13-.31-.13-.47-.15-.72-.66a1.72,1.72,0,0,1-.24-.88c0-.12,0-.22-.05-.22-.24,0-.57-1-.47-1.35s0-.41-.16-.48a.26.26,0,0,1-.16-.36.5.5,0,0,0-.06-.46,4.86,4.86,0,0,1-.26-1.46,10.87,10.87,0,0,0-.18-1.5,11.35,11.35,0,0,1-.12-1.7,8.07,8.07,0,0,0-.14-1.63.19.19,0,0,1,0-.26c.09-.06.1-.29,0-.6a.81.81,0,0,1,0-.7c.11-.13.11-.23,0-.3a2.66,2.66,0,0,1-.08-1.25c.14-2.11.21-3.54.27-5.41a12.09,12.09,0,0,1,.17-2,.19.19,0,0,0,0-.26.37.37,0,0,1-.08-.37c0-.15.09-.57.13-.92a7,7,0,0,1,.19-1c.07-.24,0-.42-.09-.5s-.16-.24,0-.64a1,1,0,0,0,0-.8,6.11,6.11,0,0,1-.05-1.86c.06-.87.11-1.72.12-1.89a1.49,1.49,0,0,1,.1-.48,5.09,5.09,0,0,0,0-1.52c0-.12-.17-3.18-.16-3.83a2.1,2.1,0,0,1,.1-.69.35.35,0,0,0-.09-.35c-.12-.14-.13-.46,0-1a2.28,2.28,0,0,0,0-.94,5.42,5.42,0,0,1-.15-1.28c0-.62-.06-1.26-.08-1.44s0-.32.15-.32c.36,0,.4-.22.07-.43s-.43-.4,0-.39.47-.45,0-.52c-.28,0-.36-.13-.3-.36s0-.35-.06-.4-.18-.87,0-.87.12-.07,0-.24a2.61,2.61,0,0,1-.25-1.08l-.13-2c-.06-.87,0-1.19.15-1.34s.31-.63.07-.63c-.09,0-.16-.11-.16-.24s.15-.24.38-.24.4-.11.46-.4,0-.44-.05-.48.56-.87.84-.87a1.58,1.58,0,0,0,.69-.55c.35-.42.51-.51.67-.38s.28.07.22-.25c0-.08.12-.1.3-.06a.94.94,0,0,0,.72-.22,1.7,1.7,0,0,1,1.16-.29,8.94,8.94,0,0,0,3.32-1c.2-.2.61-.19.49,0s.14.05.44-.07a4,4,0,0,1,2.7.18,1,1,0,0,0,.63.22,18.84,18.84,0,0,1,4.1,1.05,1.63,1.63,0,0,0,.72.23,4,4,0,0,1,1.17.4,4.25,4.25,0,0,0,1,.4,2.24,2.24,0,0,1,.76.32,2.18,2.18,0,0,0,.77.32.4.4,0,0,1,.34.25.25.25,0,0,0,.32.16c.13,0,.55.25,1,.71a3.17,3.17,0,0,0,1.27.89,1.64,1.64,0,0,1,.77.4c.15.16.33.26.39.22s.72.36,1.44,1.08a1.55,1.55,0,0,0,.64.44.84.84,0,0,1,.46.29,1.55,1.55,0,0,0,.66.4,2.55,2.55,0,0,1,.64.27c.21.14.21.18,0,.33s-.11.15.32.09.47,0,.36,0c-.31.13-.24.38.11.38a.67.67,0,0,1,.5.36,1.44,1.44,0,0,0,.4.49c.14.08.18.29.12.58s0,.48.25.57.34.21.34.33.14.26.32.32.32.19.32.31a.94.94,0,0,0,.32.49,1,1,0,0,1,.32.59.44.44,0,0,0,.24.39c.13.05.2.16.15.24a.34.34,0,0,0,.07.35,4.17,4.17,0,0,1,.58,1.87c-.05.09,0,.2.15.25s.2.16.07.38a.85.85,0,0,0,0,.8,1.63,1.63,0,0,1-.14,1.34c-.38,1-.37.91-.08.91s.3.28-.08.52a.72.72,0,0,0-.32.54,4.36,4.36,0,0,1-.83,2.1c-.29.43-.39.71-.28.78s-.42.85-.93,1a.54.54,0,0,0-.36.6c0,.37-.1.51-.48.66s-.48.3-.48.42-.07.22-.15.22c-.27,0-1.23.72-1.18.89s-.17.25-.45.38a5.32,5.32,0,0,0-1.74,1.17c0,.07-.18.13-.4.13s-.4-.07-.4-.16-.15-.16-.33-.16-.29.06-.25.14-.17.36-.49.64-.62.47-.8.32-.28-.14-.39,0,0,.22.33.34c.78.27.58.36-.71.3-1,0-1.19,0-1.16.19s-.13.28-.44.35-.35.11-.2.13.28.08.28.16-1.36.38-1.93.26c-.34-.08-.5,0-.57.14a1.55,1.55,0,0,1-.89.41c-1,.21-1.09.21-.78,0s.14-.16-.2-.16a.79.79,0,0,0-.69.38c-.33.51-2.16,1-2.16.58,0-.09.22-.16.48-.16.53,0,.61-.17.23-.55s-.64-.16-1,.3a1,1,0,0,1-.65.25c-.63,0-.95.15-.85.4a.85.85,0,0,1-.11.57c-.12.22-.13.39,0,.45a1.85,1.85,0,0,1,0,1,3.1,3.1,0,0,0,0,1.14,1.3,1.3,0,0,1,0,.76,5.14,5.14,0,0,0-.17,1.18c0,.35-.08,1.25-.18,2S150,43.07,150,44.7s-.07,3.07-.11,3.2-.16.85-.26,1.58a5,5,0,0,1-.4,1.6.55.55,0,0,0-.15.45,5,5,0,0,1-.91,2.44.39.39,0,0,0-.21.48c0,.18,0,.32-.09.32a.2.2,0,0,0-.18.22c0,.12-.19.27-.41.33s-.38.18-.33.32-.07.25-.35.3-.58.13-.77.19-.37,0-.41-.08Zm-.54-2.9a2.36,2.36,0,0,0,.81-2c.06-.95.22-3,.31-3.76,0-.31.1-2.46.15-4.77s.12-4.27.16-4.34a26.42,26.42,0,0,0,.17-2.66,15.09,15.09,0,0,1,.24-2.71,2.25,2.25,0,0,0,.19-.89c0-.68.41-1.59.65-1.59a1.32,1.32,0,0,0,.45-.36,1.25,1.25,0,0,1,.69-.38,8.5,8.5,0,0,0,2.63-.48A3.59,3.59,0,0,1,152.8,29a4.53,4.53,0,0,0,1.57-.22,10.24,10.24,0,0,1,1.71-.5c.7-.15,1.57-.37,1.92-.49a18.47,18.47,0,0,0,2.7-1,2.23,2.23,0,0,1,.7-.25c.29-.06.52-.2.52-.3s.37-.44,1.42-1a6.73,6.73,0,0,0,.91-.68,3.34,3.34,0,0,1,.86-.57c.18-.06.33-.16.33-.23a1.71,1.71,0,0,1,.39-.54,8,8,0,0,0,.9-1.42,11.49,11.49,0,0,1,.69-1.22,8.64,8.64,0,0,0,.84-2.09,1.67,1.67,0,0,0-.32-1.85,2.22,2.22,0,0,1-.38-1,.84.84,0,0,0-.26-.6,1,1,0,0,1-.33-.59,1.68,1.68,0,0,0-.43-.76,2.06,2.06,0,0,1-.47-.66c-.08-.2-.25-.36-.38-.36s-.29-.18-.34-.4-.15-.4-.21-.4c-.25,0-1.47-1.33-1.4-1.52s-.12-.29-.43-.4l-1-.41a2.61,2.61,0,0,0-.75-.22.54.54,0,0,1-.41-.29,3.22,3.22,0,0,0-.87-.74c-.44-.28-.68-.54-.63-.67s0-.22-.09-.22a1,1,0,0,1-.46-.28,4.8,4.8,0,0,0-2-.84,1.32,1.32,0,0,1-.64-.36,1.55,1.55,0,0,0-1-.53c-.22-.06-.4-.2-.4-.32a.23.23,0,0,0-.24-.22.24.24,0,0,1-.24-.25c0-.2-.06-.21-.34-.06s-.3.21-.12.34.18.14,0,.09a.53.53,0,0,1-.29-.43c0-.32-.12-.35-.59-.26-.71.13-1.95-.47-1.67-.81.15-.18.12-.22-.12-.22a.81.81,0,0,0-.5.19c-.15.15-.23.15-.38,0-.35-.35-1.68-.22-2.86.28a12.15,12.15,0,0,1-2.38.67c-.7.11-1.25.27-1.24.37s-.16.15-.39.12a.79.79,0,0,0-.62.2.65.65,0,0,1-.39.24c-.29,0-1,.84-1,1.2a39.11,39.11,0,0,0,.14,5c.25,2.21.32,3.18.4,5.52.09,2.78.1,10.55,0,10.69a12.33,12.33,0,0,0-.09,1.71l0,3.2c0,3.14-.08,4.67-.21,7a40.17,40.17,0,0,0,.07,5l.25,3.28a20.8,20.8,0,0,0,.76,3.88c.29,1,.43,1.2.83,1.4.62.31.6.31,1.11-.1Zm6.49-28.49a3,3,0,0,1-2.08-1.31c-.35-.45-.73-.93-.84-1.05a4.52,4.52,0,0,1-.82-2.41,3.6,3.6,0,0,0-.16-1.09.4.4,0,0,1,.06-.43.38.38,0,0,0,.1-.37,35.24,35.24,0,0,1-.33-4.78c-.06-1.26,0-1.33.35-1.64a1.49,1.49,0,0,1,.69-.32,2.44,2.44,0,0,0,.89-.42,2.38,2.38,0,0,1,.94-.42,6.41,6.41,0,0,1,2.39.35,5.45,5.45,0,0,0,1.93.6,2,2,0,0,1,.85.43,1,1,0,0,0,.76.29c.24,0,.39,0,.39.16a6.07,6.07,0,0,0,1.2,1.33,6.39,6.39,0,0,1,1.2,1.32.18.18,0,0,0,.16.2c.09,0,.16.15.16.33a.47.47,0,0,0,.25.42.26.26,0,0,1,.16.32c-.05.14.07.28.31.38.4.15.53.54.24.71s-.13.23.1.84a.91.91,0,0,1-.2,1c-.13.07-.19.2-.14.28s-.44.94-1.56,2.11a9.27,9.27,0,0,1-3.21,2.3c-.37.13-.81.29-1,.37a14.31,14.31,0,0,1-1.92.55,2.36,2.36,0,0,1-.88-.09ZM152.68,21a5.71,5.71,0,0,0,.68-.46,5.34,5.34,0,0,1,.74-.48,9,9,0,0,0,1.48-1.47c1.18-1.39,1.26-1.7.76-2.86-.25-.59-.45-.77-1.2-1.13a4.68,4.68,0,0,0-1.42-.44c-.28,0-.43,0-.32-.09.28-.11.25-.37,0-.37-.13,0-.24.07-.24.16s-.39.16-.86.16c-1.13,0-1.28.19-1.31,1.74,0,.67-.08,1.78-.14,2.46a3.71,3.71,0,0,0,.17,2,3,3,0,0,0,.46.89,1.39,1.39,0,0,0,1.25-.08ZM152,32.24c0-.2-.43-.34-.72-.24-.13.05-.2.16-.15.23s.87.19.87,0Zm-12.84-2.35a.32.32,0,0,0-.31,0c-.13.05-.09.09.1.1s.26,0,.21-.08Zm.44-18.46a.59.59,0,0,0-.45-.16c-.29,0-.31,0-.11.16S139.73,11.63,139.6,11.42Zm8.72-8.32c.21-.13.2-.16,0-.16a.47.47,0,0,0-.37.16c-.13.2.09.2.4,0ZM104.8,54.71a.6.6,0,0,0-.46-.21A7.42,7.42,0,0,1,102,54.1a1.68,1.68,0,0,0-.72-.21c-1.11-.1-1.87-.33-1.87-.55s-.14-.15-.31-.15c-.53,0-.81-.18-.82-.54s0-.32-.17-.06-.49.37-.37,0c.06-.17,0-.24-.26-.24s-.33-.07-.27-.22,0-.2-.21-.14c-.39.1-1.25-.51-1.22-.87,0-.18-.11-.3-.33-.33a2.23,2.23,0,0,1-.9-.68,2.34,2.34,0,0,0-.72-.63c-.09,0-.13-.14-.08-.32s0-.32-.17-.32c-.37,0-.89-.49-.79-.74s0-.22-.09-.22-.16-.13-.15-.28a5.39,5.39,0,0,0,0-.66c0-.3-.07-.34-.24-.2s-.6-.12-.48-.57c.06-.21,0-.36-.17-.43-.35-.14-.32-.55.06-.66s.28-.13-.16-.55c-.29-.27-.44-.55-.38-.7a.3.3,0,0,0-.08-.35c-.26-.16-.2-.57.08-.57s.23,0,0-.25a1,1,0,0,1-.25-.64c0-.34.07-.39.6-.39s.6,0,.26-.28a1.53,1.53,0,0,1-.45-.62c-.09-.29,0-.36.38-.45s.5-.4-.06-.4a.83.83,0,0,1-.57-.24c-.16-.2-.15-.24.05-.24s.67-.59.39-.68-.32-1.24,0-1.35.19-.14.06-.3A2.84,2.84,0,0,1,91.75,35c.23-.23.28-.23.41,0s.15.17.15,0-.15-.28-.34-.38-.28-.23-.2-.29a1.07,1.07,0,0,0,.19-.58,1.36,1.36,0,0,1,.4-.78c.24-.2.29-.33.15-.37-.35-.12-.22-.33.27-.44s.68-.38.55-1c-.07-.34,0-.48.12-.48s.17,0,0-.15-.19-.19-.05-.34.76-.07.62.16.07.67.23.57.07-.93-.14-1c-.37-.12-.17-.38.22-.29s.4,0,.4-.21a.42.42,0,0,1,.2-.38c.16-.06.16-.14,0-.41-.28-.47-.25-.54.11-.31s.61.06.33-.27-.15-.26.07-.35a.91.91,0,0,0,.41-.48c.08-.21.25-.38.39-.38a.28.28,0,0,0,.24-.31c0-.48.17-.81.42-.81a.23.23,0,0,0,.22-.23,1.71,1.71,0,0,1,.4-.7,1.68,1.68,0,0,0,.4-.73c0-.16.2-.29.56-.35.55-.1.79-.39.32-.39-.13,0-.24-.08-.24-.17s.14-.13.31-.07.5-.1,1-.63a2.8,2.8,0,0,1,1-.73c.14,0,.21-.07.16-.15s.05-.19.23-.25.32-.16.32-.23.73-.46,1.28-.52c.22,0,.4-.14.4-.25,0-.29.87-.7,1.23-.59a.6.6,0,0,0,.5-.06,5.68,5.68,0,0,1,2.51-.14c0,.08.1.1.22.06a.45.45,0,0,1,.42.1c.16.15.18.11.11-.17s0-.35.3-.26.38,0,.38-.16.07-.26.16-.26a.15.15,0,0,1,.16.14c0,.08.24.09.56,0,.52-.12.62-.09.59.18,0,.05.3.06.68,0s.74,0,.8.1.2.13.43,0,.53-.1.54.15a2.3,2.3,0,0,0,.44.57c.24.26.4.5.36.54s.64.67.9.67,1.17.62,1.18.91a.43.43,0,0,0,.32.36,5.15,5.15,0,0,1,1.84,1.31c0,.09.15.13.33.09s.31,0,.22.26-.08.32.14.14.26-.15.3.24.22.53,1,.93c.55.26,1,.57,1,.68s.22.35.48.55c.51.38.64.77.24.77-.13,0-.24.07-.24.16s.18.16.39.16a.66.66,0,0,1,.57.32.58.58,0,0,0,.39.32c.12,0,.27.22.33.49a.89.89,0,0,0,.33.58c.12,0,.22.16.22.24a.93.93,0,0,0,.62.61c.19,0,.4.58.27.78s.07.18.26.23.3.14.17.3-.1.26.14.41a.57.57,0,0,0,.47.1c.08-.05.15,0,.15.07a1.68,1.68,0,0,0,.41.6A5,5,0,0,1,127.26,35c0,.07.07.13.25.13s.42.19.6.56.33.56.42.56.07.1,0,.21-.08.43.31.43.48.4.55,1.14a1.62,1.62,0,0,0,.88,1.43c.34.08.4.18.37.64a.78.78,0,0,0,.28.76.72.72,0,0,1,0,1.13c-.25.14-.25.19,0,.73a1.26,1.26,0,0,1,.18.74c-.05.09,0,.16.19.16s.27,0,0,.17-.36.47,0,.47.29.06.16.4-.09.4,0,.4.12.23.1.52c-.07.8-.07.81-.33.6s-.24-.15-.24.05a.49.49,0,0,0,.24.38c.21.12.21.19,0,.6s-.2.49,0,.58.15.17,0,.35a.55.55,0,0,0-.09.49c.07.18,0,.26-.18.26s-.24,0-.08.24.16.24,0,.24-.16.1-.12.21-.06.3-.22.4a.63.63,0,0,0-.3.43.29.29,0,0,1-.31.24c-.43,0-.75.59-.37.68.15,0,.06.06-.2.05s-.48,0-.48.38c0,.54-.94.86-2.16.74-.88-.08-.88-.08-.32.13l.56.22h-.51a.87.87,0,0,1-.62-.16.27.27,0,0,0-.32-.09c-.24.09-1-.23-1-.42s-.13-.12-.3-.12a3.12,3.12,0,0,1-1-.4c-.39-.22-.85-.46-1-.54a2.93,2.93,0,0,1-.64-.46,6.51,6.51,0,0,0-.76-.59c-.24-.16-.44-.37-.44-.48,0-.26-.64-.83-1.08-1s-.47-.34-.16-.46-.18-.42-.48-.31-1.8-1.44-1.8-1.82c0-.16-.12-.23-.36-.19s-.37.17-.41.57-.14.52-.25.52-.35.41-.66,1.54a.72.72,0,0,1-.52.45c-.34.08-.38.14-.19.26s.16.17-.13.25-.36.19-.36.31a1.24,1.24,0,0,1-.46.58,4.14,4.14,0,0,0-.74.82c-.16.25-.38.41-.49.37s-.61.31-.48.52-.06.2-.24.26a5.76,5.76,0,0,0-1,.57,3.24,3.24,0,0,1-.86.46.17.17,0,0,0-.18.15c0,.08-.23.17-.52.2s-.5.13-.48.25-.16.28-.4.38a6,6,0,0,1-2.69.12.35.35,0,0,0-.28-.14c-.11,0-.07.1.09.22s.23.26.17.31-.31.12-.53-.13Zm2.92-.83a.62.62,0,0,0-.4,0c-.11,0,0,.08.2.08S107.83,53.92,107.72,53.88Zm-2-3c0-.07.09-.13.19-.13a12.53,12.53,0,0,0,3.42-2.54c1.06-1.25,2.79-4.39,2.79-5.06a3.65,3.65,0,0,1,.33-1,4.89,4.89,0,0,0,.38-1.81,5,5,0,0,1,.17-1.31c.09-.14.45-.18,1.26-.11,1.21.09,2,.37,2,.7,0,.11.16.2.36.2.44,0,.62.12.9.63.16.28.17.41,0,.45-.35.12-.18.35.26.36s.43,0,.13.24-.25.23-.07.23,1.2,1.33.95,1.41.1.51.41.51c.13,0,.18.1.12.24s.05.27.42.34.45.14.3.24-.08.14.22.14.44.09.48.36a.45.45,0,0,0,.41.41c.2,0,.36.13.36.22s-.18.13-.4.09-.4,0-.4,0,.42.31.81.31c.17,0,.31.07.31.16s-.12.16-.26.16-.22,0-.06.24a.66.66,0,0,0,.41.24,2.44,2.44,0,0,1,.8.4,2.44,2.44,0,0,0,.8.4c.12,0,.37.21.56.46a1.58,1.58,0,0,0,.84.56c.41.08.58,0,1-.41a1.73,1.73,0,0,0,.53-.79.48.48,0,0,1,.14-.37,7.35,7.35,0,0,0,.42-2.73c-.15-2.75-.61-5.1-1.09-5.63-.17-.19-.27-.42-.22-.5s0-.25-.17-.37a2.33,2.33,0,0,1-.48-.7,5.06,5.06,0,0,0-.55-.89,1.93,1.93,0,0,1-.36-.64,5.3,5.3,0,0,0-.71-1.12,6.27,6.27,0,0,1-.68-1,6,6,0,0,0-.64-1,3.75,3.75,0,0,1-.64-1.12.39.39,0,0,0-.23-.34.63.63,0,0,1-.32-.35,7.58,7.58,0,0,0-1.12-1.31,5.68,5.68,0,0,1-1-1.24c0-.21-.49-.84-.64-.84a10,10,0,0,1-1.12-1,7.37,7.37,0,0,0-1.16-1,1.91,1.91,0,0,1-.58-.46,2.58,2.58,0,0,0-.79-.57,1,1,0,0,1-.51-.42.58.58,0,0,0-.43-.31,1.26,1.26,0,0,1-.64-.35c-.33-.31-.59-.36-2.17-.41-3.64-.12-4.19-.1-4.6.13a23.49,23.49,0,0,0-3.65,2.46c-1.67,1.52-2.85,3-2.66,3.29s-.33.73-.58.73a.17.17,0,0,0-.17.21,1.51,1.51,0,0,1-.36.73,1.94,1.94,0,0,0-.4.8.41.41,0,0,1-.24.36.44.44,0,0,0-.24.39c0,.38-.5,1.43-.68,1.43s-.09.15,0,.34.06.32-.27.22-.37-.11-.1.2.27.35,0,1c-.15.37-.39.67-.52.67s-.2,0,0,.14.18.34.11.84-.13,1.06-.17,1.49a7,7,0,0,1-.18,1.12,4.39,4.39,0,0,0-.15.81,4.07,4.07,0,0,1-.4,1.85c-.11.07-.1.25,0,.54.23.61.21.7-.16.82s-.27.4.15.4c.16,0,.29.09.3.2s.09.51.17.88c.12.56.1.71-.11.84s-.18.15-.06.16.2.14.2.31a.44.44,0,0,0,.24.39.38.38,0,0,1,.24.32.7.7,0,0,0,.26.44,2.4,2.4,0,0,1,.61,1.19c0,.09.18.23.37.32s.36.24.36.35.22.24.48.3a2.73,2.73,0,0,1,1,.61,1.43,1.43,0,0,0,.8.45c.3-.06.36.23.06.34-.11,0,0,.07.28.07a8.45,8.45,0,0,1,1.36.18,13.55,13.55,0,0,0,1.44.22,4.47,4.47,0,0,0,2.24-.55Zm-2.4-7.12c-.6-.1-1.76-.71-1.76-.94a.67.67,0,0,0-.25-.4c-.53-.44-.76-1.32-.76-2.87a3.87,3.87,0,0,1,.35-2.16,3.09,3.09,0,0,0,.35-.84,2.66,2.66,0,0,1,.32-.77c.18-.32.28-.64.23-.72s0-.15.17-.15.91-1.23,1-1.8a1.21,1.21,0,0,1,.29-.57,1,1,0,0,0,.27-.49c0-.13.12-.16.32-.1s.42-.07.15-.35c-.13-.13-.12-.21,0-.29s.27,0,.37.14.26.21.43.1.21-.17,0-.31-.15-.16.19-.16a4.14,4.14,0,0,0,1.66-.52,1.76,1.76,0,0,1,.84-.07c.28,0,.54,0,.58,0a1.75,1.75,0,0,1,.92.09c1.08.28,1.25.27,1.25,0s.08-.22.28-.14a4.92,4.92,0,0,0,.87.2,2,2,0,0,1,.91.38,1.15,1.15,0,0,0,.65.3c.18,0,.33.07.33.16a.15.15,0,0,1-.14.16c-.21,0,0,.8.2.8s.06.08-.09.16-.24.24-.1.64.12.52-.09.68a2.27,2.27,0,0,0-.49.85c-.22.63-.22.66.07.58s.29-.06,0,.46a3.72,3.72,0,0,1-.49.76.61.61,0,0,0-.14.52c0,.16,0,.3,0,.3s-.49,1.11-.39,1.36-1,1.36-1.37,1.36c-.18,0-.34.15-.39.39a1.22,1.22,0,0,1-.73.68c-.6.28-1.11.84-.58.64.16-.06.2,0,.14.15a.25.25,0,0,1-.31.16c-.25-.1-1.07.29-.92.43s-.11.15-.36.21a2.83,2.83,0,0,0-.77.33,2,2,0,0,1-.92.22c-.33,0-.6.07-.6.16s-.14.16-.32.16-.32.07-.32.16-.09.17-.8.05Zm1.41-2.92c.75-.39,1.62-1.12,1.35-1.12a.19.19,0,0,1-.2-.16c0-.09.1-.12.22-.07a.28.28,0,0,0,.33-.09.57.57,0,0,1,.44-.17c.28,0,.3,0,.13-.24s-.16-.24,0-.24.16-.11.1-.24,0-.24,0-.24.18-.16.23-.36a3.27,3.27,0,0,1,.66-1,3,3,0,0,0,.56-.74.66.66,0,0,1,.24-.33.48.48,0,0,0,.14-.52c-.08-.25,0-.3.16-.22s.23,0,.09-.23-.12-.39,0-.55a.55.55,0,0,0,.09-.49c-.08-.22-.27-.25-1.14-.18A3.6,3.6,0,0,0,107,34c-.12.1-.26.13-.32.07s-.11,0-.11.12a1,1,0,0,1-.4.53,1,1,0,0,0-.4.52c0,.12-.07.22-.15.22s-.11.11-.06.24,0,.24-.21.25-.22,0-.09.1,0,.53-.38.53c-.13,0-.33.39-.5,1s-.37,1-.48,1a.22.22,0,0,0-.2.23.38.38,0,0,0,.2.32c.16.07.16.11,0,.19a.45.45,0,0,0-.2.38.43.43,0,0,1-.24.38c-.32.12-.31.57,0,.93s.56.37,1.3,0Zm6.07-1.39a.32.32,0,0,0-.31,0c-.13.05-.09.09.1.1s.26,0,.21-.08Zm1.4-3.58c.05-.09,0-.16-.06-.16a.35.35,0,0,0-.26.16c-.05.09,0,.16.06.16A.35.35,0,0,0,112.24,35.9Zm2.6,12.54a.32.32,0,0,0-.31,0c-.13.05-.09.09.1.1s.26,0,.21-.08Zm-23-6.08a.32.32,0,0,0-.31,0c-.13.05-.09.09.1.1s.26,0,.21-.08Zm25.48-1.89c0-.17-.31-.24-.4-.09s0,.16.15.16.25,0,.25-.07Zm-25.12-3c.16-.2.15-.24-.06-.24a.25.25,0,0,0-.26.24c0,.13,0,.24.06.24A.85.85,0,0,0,92.16,37.42Zm0-1c0-.14-.09-.22-.19-.19-.3.1-.35.44-.06.44a.25.25,0,0,0,.25-.25Zm0-1c0-.14-.09-.22-.19-.19-.3.1-.35.44-.06.44a.25.25,0,0,0,.25-.25ZM112,22.69a.32.32,0,0,0-.31,0c-.13.05-.09.09.1.1s.26,0,.21-.08Zm-98.84,29-.4-.24.48.1a1.66,1.66,0,0,1,.63.25c.25.24-.27.16-.71-.11ZM8.8,51.58c0-.09-.1-.16-.22-.16a.39.39,0,0,1-.32-.25c-.12-.3-.71-.17-1,.22-.18.23-.25.2-.67-.26s-.56-.51-1.38-.51-.89,0-.81.24-.07.13-.46-.12c-.55-.35-.71-.6-.4-.6s.16-.39-.21-.65a2.86,2.86,0,0,0-.82-.37L2,49l.27.41c.15.23.2.41.11.41s-.24-.14-.33-.32a.59.59,0,0,0-.42-.32c-.16,0-.22-.09-.16-.25s-.22-.87-.5-.87-.25-.24,0-.49.19-.26.09-.36-.24-.09-.41,0-.25.15-.25.09.16-.24.35-.4l.35-.28-.59-.11C.26,46.5,0,46.38,0,46.3a.14.14,0,0,1,.12-.15c.07,0,.25-.3.41-.66.23-.53.25-.69.08-.79s-.12-.21.15-.46a1.09,1.09,0,0,0,.36-.57.21.21,0,0,1,.18-.23c.11,0,.15-.17.1-.41s0-.4.24-.33,1.12-.2,1-.37.58-.79,1.16-.89c.33-.06.89-.18,1.24-.26s.89-.19,1.2-.23l1.68-.22c.62-.08,2.54-.2,4.29-.25a23.32,23.32,0,0,0,4.08-.34l1.52-.39a4.75,4.75,0,0,0,.88-.29,3,3,0,0,1,.68-.23,3.77,3.77,0,0,0,1.2-.89c.72-.73,1.21-1.06,1-.65-.05.09,0,.16.06.16a.35.35,0,0,0,.26-.16c.05-.09,0-.16-.07-.16-.34,0-.1-1,.51-2.22a1.05,1.05,0,0,0,.16-.72,1.29,1.29,0,0,1-.12-.55.67.67,0,0,0-.24-.51c-.18-.11-.15-.17.16-.29l.39-.15L22.28,33c-.39-.12-.44-.26-.19-.51s-.26-1.34-.61-1.34-.74-.92-.51-1.2-.4-.7-1-.92a.26.26,0,0,1-.18-.35c.05-.14,0-.25-.08-.25s-.18-.14-.18-.32.11-.32.24-.32c.36,0-.37-.69-.79-.74q-1.37-.18-1.37-.47c0-.12-.19-.23-.43-.26s-.52-.22-.76-.68c-.32-.61-.73-.94-.73-.58,0,.1-.11.17-.23.17s-.2-.09-.14-.24,0-.24-.24-.24a.69.69,0,0,1-.52-.29.5.5,0,0,0-.54-.23A.76.76,0,0,1,13.4,24a.75.75,0,0,0-.73-.16c-.4.08-.5,0-.59-.26s-.19-.34-.59-.26S9.78,23,10,22.84s-.71-.53-1.11-.44-.5-.08-.19-.38,0-.45-.25-.21-.74.09-.74-.16c0-.08-.22-.14-.48-.14s-.48-.07-.48-.16-.11-.16-.25-.16c-.41,0-.72-.4-.5-.63s.12-.19-.13-.16c-.55.06-.72,0-.72-.23a.39.39,0,0,0-.25-.32c-.14-.05-.21-.17-.15-.26s0-.2-.15-.26-.21-.17-.1-.38c.19-.36,0-.52-.33-.32a.75.75,0,0,1-.54.06c-.28-.11-.35-.54-.09-.54.09,0,.16-.11.16-.24s-.07-.24-.16-.24-.16-.11-.16-.24-.14-.3-.47-.09-.48,0-.25-.64.18-1.11-.08-1.11-.3-1.66-.12-1.89.11-.25-.06-.36-.15-.15,0-.15.4-.61.2-.68.3-1,.61-1.16.22-.15.08-.29-.23-.39.12-.49c.2-.05.35-.28.42-.66s.18-.58.26-.58.11-.13.06-.29,0-.35.31-.48c.46-.21.54-.67.12-.68-.25,0-.25,0,0-.24a.68.68,0,0,1,.54-.15c.14.06.19,0,.13-.14s.62-1.05,1-1.05c.12,0,.22-.07.22-.16S6.54,6,6.72,6,7,5.89,7,5.78,8.11,5,8.53,5c.15,0,.27-.07.27-.16s.13-.16.28-.17c.32,0,.88-.38.75-.51s.61-.54,1.33-.72c.39-.1.72-.11.77,0,.14.23.55.16.55-.1s.15-.24.41-.24A1.8,1.8,0,0,0,13.57,3c.41-.21,1.44-.38,1.15-.19s-.2.2,0,.35.22.14.3-.07.17-.27.25-.27a1.93,1.93,0,0,0,.61-.34c.39-.29.6-.33,1.34-.24s.9,0,.95-.1.14-.16.41,0a1.87,1.87,0,0,0,.78.21,8.76,8.76,0,0,1,1.4.24,9.08,9.08,0,0,0,1.71.23,1.54,1.54,0,0,1,.85.16c.16.26.61.19.5-.08s0-.24.22-.24.31.08.31.17a.64.64,0,0,0,.82.51l.38-.1-.4-.11L24.72,3l.42,0a.51.51,0,0,1,.52.24c.07.17.23.23.49.18s.36,0,.32,0c-.14.23.41,1.1.65,1s.32-.37.07-.37c-.09,0-.16-.11-.16-.25s.12-.23.36-.2.34.15.32.26,0,.16.12.11.21,0,.26.15.29.25.64.25.54.07.54.3.31.51.75.4a1.35,1.35,0,0,1,.7.08c.38.15.38.16,0,.17a.62.62,0,0,0-.44.16c-.11.18.49.39.71.25s.16,0,.16.15.05.25.12.25c.22,0,.17.78-.06.86-.38.15-.27.6.14.54.2,0,.35-.13.33-.22s.17-.17.42-.17c.45,0,.45,0,.14.33s-.31.33,0,.39.3.1.15.28-.14.23-.07.23,0,.11-.08.25-.15.29.1.48.27.25.06.39-.17.16-.08.17,0,.11-.13.23-.29.26-.28.31c.06.54,0,.74-.39.83s-.36.16-.31.24-.11.23-.36.34a2.64,2.64,0,0,0-.53.28c-.55.59-1.51.75-3.52.57-.57-.05-1.89-.12-2.93-.14a7.63,7.63,0,0,1-2-.2,11.37,11.37,0,0,0-2.48-.2l-2.37,0-.47.5c-.34.36-.56.47-.79.4s-.3,0-.25.26a1.11,1.11,0,0,1-.14.69c-.2.32-.19.89,0,.89a4.3,4.3,0,0,0,.6-.14.82.82,0,0,1,.88.16c.32.24.34.3.11.3s-.28-.07-.28-.16-.18-.16-.41-.16-.37.07-.31.16a.53.53,0,0,0,.41.16c.17,0,.31.07.31.16s.28.2.63.26.6.17.55.3.08.24.27.29.32.17.25.38-.09.27.11,0,.26-.25.66,0a.89.89,0,0,0,.59.14c.08,0,.39.06.68.24a2.19,2.19,0,0,0,.87.33.57.57,0,0,1,.44.17c.07.11.34.14.69.08.55-.09.56-.08.26.15s-.29.27-.08.4a1,1,0,0,0,.44.15.19.19,0,0,1,.2.17c0,.09.13.21.28.27a6,6,0,0,1,.84.47,3.08,3.08,0,0,0,.92.42,1.13,1.13,0,0,1,.63.45c.37.53.85.95,1.11.95s.2.15.18.36,0,.36.28.37A1.37,1.37,0,0,1,29,22.91c0,.15.11.18.49.11s.57,0,.75.26.18.38,0,.55-.19.21.34.34.59.23.57.39.14.33.36.43c.5.23.54.58.05.46-.23-.06-.09.13.44.6.68.6.76.72.57.95s-.17.3,0,.51a.86.86,0,0,1,.26.4c0,.08.12.15.26.15s.22.09.16.25a.25.25,0,0,0,.15.34.29.29,0,0,1,.15.39c-.07.21,0,.3.16.3.41,0,.38,1.08,0,1.4-.24.18-.24.2,0,.2s.27-.08.27-.17.07-.13.15-.07a.28.28,0,0,1,.06.33.26.26,0,0,0,.17.33c.19.07.21.16.09.3s-.07.23.2.31l.36.11-.36.15c-.2.08-.36.22-.36.3s-.16.18-.36.21-.37.16-.38.29,0,.17.05,0a.29.29,0,0,1,.34-.16c.21,0,.26.2.23.73s0,.68.16.68.08.07-.07.17c-.33.19-.29,1.07.06,1.29.17.11.16.14-.06.14s-.4.78-.11,1.06,0,.7-.43.7-.37,0-.21.33.13.39,0,.55-.15.29-.1.36-.46.68-.75.68a.68.68,0,0,0-.4.19c-.15.15-.23.15-.38,0a.62.62,0,0,0-.36-.19c-.09,0,0,.11.13.23s.28.25,0,.49c-.4.4-.32.61.18.48s.43-.1.12.14a1.22,1.22,0,0,1-.54.25c-.17,0-.18.06,0,.22s.13.27-.05.41a.4.4,0,0,0-.16.39c0,.11-.36.65-.9,1.2s-.94,1.09-.89,1.23,0,.23-.14.23c-.37,0-.46.33-.14.57s.25.23,0,.23a.67.67,0,0,1-.43-.17c-.23-.23-.54,0-.42.26,0,.13,0,.23-.07.23a.28.28,0,0,1-.23-.2c-.05-.16-.13-.15-.33,0a.74.74,0,0,1-.59.13c-.39-.1-.42.18-.05.45s.16.78-.27.64-1.7.08-1.44.24-.09.25-.61.49a1.86,1.86,0,0,0-.88.66c-.08.3-.18.36-.95.53a2.84,2.84,0,0,0-1,.66,1.63,1.63,0,0,1-1.08.58,1.44,1.44,0,0,0-.67.15c-.11.09-.26,0-.38-.1-.25-.3-.48-.3-1.06,0-.34.18-.48.19-.57,0s-.17-.13-.24-.06,0,.26.25.41l.38.29L18,51a.74.74,0,0,1-.61-.06,1.46,1.46,0,0,0-.78-.17,2.33,2.33,0,0,0-1.39.44s0,.15.14.28.15.24,0,.24a.37.37,0,0,1-.28-.25c-.07-.19-.23-.23-.62-.16s-.57,0-.63-.07-1-.21-1.38,0a.4.4,0,0,1-.56-.08.65.65,0,0,0-.64-.15c-.25.06-.39,0-.39-.1s-.14-.16-.4-.09-.4,0-.4-.06-.11-.16-.24-.16c-.43,0-.25.29.24.4.7.15.73.37,0,.37-.33,0-.62.08-.65.18s-.67.23-.67,0Zm.44-.36c0-.11-.24-.21-.45-.23s-.28,0-.11.05.28.15.28.23a.16.16,0,0,0,.17.15c.1,0,.14-.09.11-.2Zm5.32-.92a.16.16,0,1,0-.16.16A.16.16,0,0,0,14.56,50.3Zm6.4-.8a.16.16,0,1,0-.16.16A.16.16,0,0,0,21,49.5ZM16.33,47.9a16.28,16.28,0,0,0,2.48-.79,14.76,14.76,0,0,1,1.79-.64c.11,0,.2-.06.2-.14s.21-.23.47-.33a2.5,2.5,0,0,0,.76-.51,2.88,2.88,0,0,1,.77-.54,11,11,0,0,0,1-.59l1.36-.87a6.51,6.51,0,0,0,2.16-2.34.67.67,0,0,1,.24-.43.67.67,0,0,0,.24-.38,2.82,2.82,0,0,1,.48-.81,2.61,2.61,0,0,0,.48-.83,1.67,1.67,0,0,1,.37-.65,4.15,4.15,0,0,0,.57-1,10.39,10.39,0,0,1,.41-1,10.19,10.19,0,0,0,.48-1.56,4.34,4.34,0,0,0,.09-2.24,13.08,13.08,0,0,0-1.49-4.32,9.65,9.65,0,0,1-.6-1.09,2.88,2.88,0,0,0-.39-.6,3.26,3.26,0,0,1-.5-.95c-.06-.24-.22-.44-.36-.44a.9.9,0,0,1-.5-.24l-1.15-1.1a11.44,11.44,0,0,0-1.81-1.38,3.44,3.44,0,0,1-1-.74.33.33,0,0,0-.25-.22,5.31,5.31,0,0,1-1.06-.54,9.83,9.83,0,0,0-1.54-.75,3.63,3.63,0,0,1-.89-.42.94.94,0,0,0-.48-.21,1.25,1.25,0,0,1-.55-.21,4.74,4.74,0,0,0-1.08-.42c-.44-.12-.76-.3-.76-.43s-.18-.22-.49-.22a1.17,1.17,0,0,1-.86-.4,1.21,1.21,0,0,0-.64-.4,3.34,3.34,0,0,1-1.54-1.62.69.69,0,0,0-.32-.49.65.65,0,0,1-.32-.4.19.19,0,0,0-.17-.2c-.11,0-.11-.11,0-.33a.8.8,0,0,0,.06-.6c-.27-.61-.24-1,.09-1.07s.44-.4.08-.4-.32-.26,0-.39.15-.12,0-.18c-.29-.14.79-1.19,1.23-1.19a1.91,1.91,0,0,0,1-.66,4,4,0,0,1,2.58-1.13.44.44,0,0,0,.43-.31c.08-.3.09-.3.67,0a3.29,3.29,0,0,0,1.44.35c.63,0,.83.08.77.23-.12.31,1.19.28,1.5,0s.62-.22.59.14.34.36.5.1A.2.2,0,0,1,23.24,9c.1.06.26,0,.38-.17a1.56,1.56,0,0,1,.88-.37c.57-.08.66-.05.58.16s0,.23.22.16a1.5,1.5,0,0,1,.85.2A1,1,0,0,0,27,9.1c.26-.12.25-.14-.14-.2s-.44-.11-.44-.17a2.06,2.06,0,0,1,1-.51c.14,0,.83-.65.74-.7l-1-.33c-.53-.17-.92-.39-.92-.52,0-.32-.45-.44-.75-.19s-.28.17-.33,0-.25-.2-.47-.2-.38-.07-.33-.2-.12-.21-.58-.22a2.85,2.85,0,0,1-2.26-.77c-.42-.45-.56-.5-1.1-.44s-.61,0-.53-.18,0-.29,0-.34-.18,0-.23.21-.25.29-1.22.25-1.1,0-1,.17,0,.23-.66.31a1.73,1.73,0,0,1-1-.08c-.12-.1-.27-.13-.33-.07s0,.18.12.25.19.18.14.24a2.09,2.09,0,0,1-1.41.09c-.05-.09-.36-.12-.69-.06s-.55.16-.5.24.26.1.48,0,.37,0,.29.16-.23.24-.73.16a1,1,0,0,0-1,.21,3,3,0,0,1-1.59.85c-.28,0-.31,0-.13.15s0,.2-.52.34-.75.28-.75.4c0,.33-1.14,1.19-1.51,1.13-.18,0-.24,0-.13,0s.26.31,0,.48a4,4,0,0,0-1.24,2.18,14.48,14.48,0,0,1-.59,1.66,3.71,3.71,0,0,0,.22,3.1c.45.87,1.09,1.57,1.44,1.58a1.87,1.87,0,0,1,.66.41,1.66,1.66,0,0,0,.79.4,1.44,1.44,0,0,1,.71.31,5,5,0,0,0,1.41.57,9.53,9.53,0,0,1,1.86.73,3.62,3.62,0,0,0,1.39.47,1.13,1.13,0,0,1,.75.24.73.73,0,0,0,.49.24.5.5,0,0,1,.39.16.52.52,0,0,0,.4.16,1.46,1.46,0,0,1,.73.4,1.57,1.57,0,0,0,.61.4,3.42,3.42,0,0,1,1.54.89c0,.1.18.27.41.39a2.09,2.09,0,0,1,.67.67,1.33,1.33,0,0,0,.54.53,1.4,1.4,0,0,1,.55.52,8.65,8.65,0,0,0,1.63,1.63c.14,0,.45.42.64.84.11.24.27.44.36.44s.16.1.16.22a1.68,1.68,0,0,0,.36.67c.42.53.8,2.1.53,2.21-.1,0-.06.17.11.3s.38,1,.11,1.16c-.11.07,0,.27.25.55s.4.45.13.55-.27.12,0,.27.35.44,0,.87-.29.37-.09.54.17.3-.24.94-.45.86-.38,1.19,0,.44-.15.44-.21.09-.16.23,0,.2-.27.13-.34,0-.26.17,0,.25-.33.17l-.44-.09.39.31.39.31-.34.18c-.19.1-.3.27-.26.39s-.1.37-.32.58a.77.77,0,0,1-.82.26c-.36-.09-.41-.06-.33.16s0,.25-.29.17a.65.65,0,0,0-.63.14,1.66,1.66,0,0,1-1,.24,1.49,1.49,0,0,0-1.29.46,2,2,0,0,1-1.21.54c-.4,0-.68,0-.64-.06s-.21-.17-.6,0c-.18.1-.37.12-.43,0s-1.3-.24-1.3-.07.12.18.26.24.22.14.17.19-.34-.09-.64-.32c-.62-.47-1.09-.58-.76-.18.16.19.16.24,0,.24a3.05,3.05,0,0,0-.58.1c-.29.08-.36,0-.36-.24s-.07-.34-.15-.34-.39.34-.21.46-.08.26-.38.45-.58.28-.63.2a.51.51,0,0,0-.39-.15.4.4,0,0,1-.37-.2c0-.14-.19-.09-.46.16a1.38,1.38,0,0,1-.58.36c-.32,0-.83-.62-.73-.88s0-.24-.08-.24a.17.17,0,0,0-.18.16c0,.09-.11.16-.25.16a.37.37,0,0,0-.22.65c.17.11.14.14-.13.14a.61.61,0,0,0-.46.17c-.07.11-.21.07-.42-.11a1.68,1.68,0,0,0-1.06-.29c-.66,0-.76,0-.81.35s-.35.5-.35.12a.24.24,0,0,0-.24-.24c-.15,0-.24.15-.24.42s-.06.39-.25.32c-.45-.17-.61.09-.22.39l.37.28-.36.19c-.3.16-.33.23-.15.45a1.08,1.08,0,0,1,.23.51l0,.61c0,.26.12.36.38.36.45,0,.83.23.71.43-.22.35,1.2.56,4.37.63,1.8,0,3.3.1,3.32.11s2.13-.27,3.74-.55ZM4.48,44.7a.17.17,0,0,1,.17-.16c.09,0,.12.07.07.16s-.13.16-.17.16S4.48,44.79,4.48,44.7ZM22.72,8.56c0-.19.47-.36.67-.24s.08.15-.05.24-.62.18-.62,0Zm3.17-.13a.32.32,0,0,1,.31,0c.05.05,0,.09-.21.08s-.22,0-.1-.1ZM2.28,43.32a.62.62,0,0,0-.4,0c-.11,0,0,.08.2.08S2.39,43.36,2.28,43.32Zm28.44-.85c0-.18,0-.32-.07-.32s-.15.14-.25.32-.12.32.07.32S30.72,42.64,30.72,42.46Zm-12.8,0a.16.16,0,1,0-.16.16A.16.16,0,0,0,17.92,42.46Zm3.92-1.76a.34.34,0,0,0-.25-.16.16.16,0,0,0-.15.16c0,.09.11.16.25.16S21.89,40.79,21.84,40.7Zm11.76-4c0-.09-.1-.16-.23-.16a.42.42,0,0,0-.33.16c-.05.09,0,.16.23.16S33.6,36.79,33.6,36.7Zm-2.08-6.08c0-.09,0-.16-.07-.16s-.12.07-.17.16,0,.16.07.16A.17.17,0,0,0,31.52,30.62Zm1.6-.8c0-.09,0-.16-.07-.16s-.12.07-.17.16,0,.16.07.16A.17.17,0,0,0,33.12,29.82Zm-12.3-1.33c-.21-.21-.41,0-.26.2a.2.2,0,0,0,.27.07c.11-.07.11-.16,0-.27Zm-8.18-4.91c0-.09-.13-.16-.28-.16s-.25,0,0,.16.32.2.32,0ZM4.56,17.69s-.18,0-.29.11-.14.18.09.09.25-.15.2-.2ZM3,14.23s-.07-.12-.16-.17-.16,0-.16.07a.17.17,0,0,0,.16.17C3,14.3,3,14.27,3,14.23Zm10.24-2.88s-.07-.12-.16-.17-.16,0-.16.07a.17.17,0,0,0,.16.17C13.21,11.42,13.28,11.39,13.28,11.35Zm.44-.67a.32.32,0,0,0-.31,0c-.13.05-.09.09.1.1s.26,0,.21-.08ZM24.57,9.33c.13-.22.09-.26-.45-.39-.34-.08-.44-.05-.44.14s.2.33.67.41c.06,0,.16-.06.22-.15Zm6.71-.69c.24-.12.36-.27.27-.32a.19.19,0,0,0-.26.06.55.55,0,0,1-.42.16c-.18,0-.28.07-.22.16s.12.2.63-.06Zm-2.55-.1c.05-.09,0-.16-.15-.16s-.25.07-.25.16a.16.16,0,0,0,.15.16A.34.34,0,0,0,28.72,8.54ZM6.24,7.1c0-.09-.11-.16-.25-.16s-.2.07-.15.16a.34.34,0,0,0,.25.16A.16.16,0,0,0,6.24,7.1Zm24.88-1A.34.34,0,0,0,30.87,6a.16.16,0,0,0-.15.16c0,.09.11.16.25.16S31.17,6.23,31.12,6.14ZM30,5.5c.05-.09,0-.16-.15-.16s-.25.07-.25.16a.16.16,0,0,0,.15.16A.34.34,0,0,0,30,5.5Zm-13.2-.9s-.11-.06-.24-.06-.24.07-.24.15.11.11.24.06S16.8,4.64,16.8,4.61Zm3.88-.33a.62.62,0,0,0-.4,0c-.11,0,0,.08.2.08S20.79,4.32,20.68,4.28ZM10.88,4c0-.17-.31-.24-.4-.09s0,.16.15.16.25,0,.25-.07Zm1-.25a.16.16,0,0,0-.15-.16.34.34,0,0,0-.25.16c-.05.09,0,.16.15.16S11.84,3.83,11.84,3.74ZM11.2,51.58c0-.09.15-.16.33-.16s.28.07.23.16a.42.42,0,0,1-.33.16C11.3,51.74,11.2,51.67,11.2,51.58Zm-6-.32c-.06-.09.11-.16.4-.16s.46.07.4.16a.58.58,0,0,1-.8,0Zm86.16-5.13c0-.09.07-.12.16-.07s.16.13.16.17-.07.07-.16.07A.17.17,0,0,1,91.36,46.13ZM75.62,40.19c0-.07-.41-.08-1,0-.93.09-1.06.07-1-.15s0-.23-.19-.17-1.13-.56-1.13-.85a1.88,1.88,0,0,0-.56-.59c-.31-.25-.56-.53-.56-.64a3.08,3.08,0,0,0-.64-.9c-.35-.39-.6-.76-.55-.84s0-.14-.17-.14a.42.42,0,0,1-.35-.28,2,2,0,0,0-.31-.53,9,9,0,0,1-.94-3,.51.51,0,0,0-.1-.46,2.48,2.48,0,0,1-.31-.82c-.07-.33-.24-1-.38-1.47a6.9,6.9,0,0,1-.25-1.52A5,5,0,0,0,67,26.62a18.28,18.28,0,0,1-.25-2.72c0-1.19-.11-2.52-.14-3-.07-.93-.07-1.11-.08-1.76A8.18,8.18,0,0,0,66,16.8c-.14-.26-.29-.29-1.22-.21-1.85.15-2.71.51-3.62,1.52-.44.49-1.18,1.28-1.64,1.76s-.84,1-.84,1.27a.44.44,0,0,1-.32.49c-.23.06-.3.17-.23.39s0,.3-.05.3-.21.23-.3.52c-.13.45-.24.53-.78.62-.35.05-.54.11-.42.12a.16.16,0,0,1,.14.22.57.57,0,0,0,.16.46c.2.23.19.3-.1.57a.92.92,0,0,0-.31.62,6.24,6.24,0,0,1,0,.74c0,.41-.05.42-.43.25-.22-.1-.44-.14-.49-.09s.25.77.55,1,.19.27,0,.76-.47.78-.47.35c0-.28-.25-.32-.42-.05-.07.11,0,.32.27.5s.36.32.11.51a.76.76,0,0,0-.28.54c0,.19-.08.34-.18.34s-.13.12-.08.26a.57.57,0,0,1-.1.51c-.17.2-.16.26,0,.32s0,.21-.4.45c-.6.36-.61.38-.19.38a.74.74,0,0,1,.53.16c.09.15-.16.22-.68.2-.11,0-.2.06-.2.13s.11.14.24.14.33.57.08.72a.18.18,0,0,0-.08.23c0,.07,0,.22-.15.32a.41.41,0,0,0-.14.42c0,.13,0,.23-.09.23a.17.17,0,0,1-.18-.16c0-.09-.22-.16-.48-.16s-.48.07-.48.16.14.16.32.16a.28.28,0,0,1,.32.32c0,.18-.07.32-.16.32s-.26.24-.38.53c-.45,1.07-3,2.65-4.33,2.66-.4,0-1.37-.35-1.37-.5a8.81,8.81,0,0,0-2.15-2.06.27.27,0,0,1-.25-.29c0-.36-.3-.67-.54-.58S44,34,44.2,33.71a.2.2,0,0,0,0-.28,2.55,2.55,0,0,1,.13-1.75,2.79,2.79,0,0,0,.24-1.08,6.93,6.93,0,0,1,.15-1.1,6.89,6.89,0,0,0,.17-1c0-.4.12-.86.16-1s.07-.37.08-.44.12-.12.25-.12.24-.08.24-.18-.14-.14-.32-.1c-.35.09-.42,0-.15-.32s.13-.27,0-.5c-.22-.42-.22-.44.08-.74a1.59,1.59,0,0,0,.3-.84c0-.33.13-.62.23-.65s.13-.15,0-.37-.11-.31,0-.31.17-.11.17-.25a.39.39,0,0,1,.24-.34c.36-.14.29-.42-.07-.3s-.3,0-.26-.34.13-.47.23-.5.15-.25.08-.63c-.1-.55-.09-.56.31-.46.23.06.46,0,.51-.06s0-.16-.08-.16-.14-.07-.09-.15,0-.22-.19-.31-.22-.19.24-.45c.28-.16.52-.41.52-.55A.7.7,0,0,1,47.6,18c.27-.22.18-.48-.17-.48a.25.25,0,0,0-.23.27c0,.15,0,.23-.09.18s.13-.93.4-.93,1-.86.76-1.12-.14-.22,0-.27a.34.34,0,0,0,.2-.3c0-.12.07-.23.16-.23s.16-.22.16-.49.1-.52.25-.58a.25.25,0,0,0,.17-.3.25.25,0,0,1,.17-.3.31.31,0,0,0,.17-.4.31.31,0,0,1,.16-.4c.16-.06.19-.16.09-.29a.92.92,0,0,1,.2-1.15,2.68,2.68,0,0,0,.54-.44.91.91,0,0,1,.58-.28,1.39,1.39,0,0,0,.66-.23c.18-.13.39-.18.46-.12s0-.05-.07-.26-.29-.35-.5-.29c-.47.12-.21-.14.37-.38a2,2,0,0,0,.73-.5.76.76,0,0,1,.54-.29c.26,0,.31-.07.24-.36s.07-.54.53-1a2.29,2.29,0,0,1,.86-.68.44.44,0,0,0,.34-.16A1,1,0,0,1,55.93,6c.3,0,.55-.07.55-.15s-.15-.1-.34-.06-.32,0-.26-.13a.31.31,0,0,1,.35-.18.68.68,0,0,0,.51-.2c.14-.14.17-.25.08-.25a.18.18,0,0,1-.17-.18c0-.1.17-.15.4-.1.42.08.58-.25.2-.42-.11,0,.09,0,.44,0,.51.08.6.05.45-.11s.15-.67.66-.55c.24.06.41,0,.41-.07s.33-.22.73-.28c.61-.09.72-.16.68-.44s0-.33.63-.37.77.17.1.42c-.21.08-.38.22-.38.31,0,.27.46.18.8-.16a1.09,1.09,0,0,1,.62-.32.46.46,0,0,0,.41-.27c.08-.2.15-.22.28-.09a.36.36,0,0,0,.47,0,3.29,3.29,0,0,1,.95-.22c.5,0,.72,0,.92.24.35.4.51.39.52-.05s0-.35.23-.06.37.28.79.23.57,0,.57.05.2.14.44.17.42.14.4.25.07.2.21.2.21-.07.16-.15,0-.23.22-.32.4-.09.76.21a3.8,3.8,0,0,0,1,.57,1.85,1.85,0,0,1,.69.34c.05.08.25.11.45.06a.55.55,0,0,1,.57.16.73.73,0,0,0,.48.25,1.18,1.18,0,0,1,.58.24c.25.19.27.26.09.38a.33.33,0,0,0-.15.34c0,.15.13.14.31,0s.32-.2.47-.1.17.14,0,.15.11.62.48.74c.16,0,.24.15.2.23s.08.17.28.2l.36.06-.4.17c-.38.16-.38.18-.08.28a4.7,4.7,0,0,1,.55.23,2.21,2.21,0,0,1,.77,1.51c0,.26,0,.35.35.4.58.08.8.35.28.35a.74.74,0,0,0-.51.14c-.14.23.32.51.65.41s.24-.06.08.06-.16.19,0,.26a.47.47,0,0,1,.18.36.64.64,0,0,0,.22.43,1.22,1.22,0,0,1,.33.52c.08.26,0,.37-.23.45s-.32.12,0,.32.31.18.37,0,.22-.06.54.26.45.47.12.56-.34.21-.34.53.4.77.54.43c.06-.14.13-.12.24,0s.09.27-.16.36-.26.44.17.44c.23,0,.27.08.2.36a.94.94,0,0,1-.23.45c-.07,0,0,.4.2.79a2.07,2.07,0,0,1,.25,1.23c0,.29,0,.57,0,.61a8.4,8.4,0,0,1,.34,2.8,2.5,2.5,0,0,0,.17,1.07.36.36,0,0,1,.06.38.41.41,0,0,0,.1.42c.16.2.16.27,0,.37s-.17.14,0,.22.09.09-.12.1-.33.11-.32.73c0,.4.1.75.2.79s.11,2-.15,2.22-.07.11.16.06.34,0,.17.27a1,1,0,0,0,.08,1.34c.28.3.29.39.11.62s-.17.29.09.48.22.22.1.22-.18.15-.09.6a8,8,0,0,1,.14,1,.68.68,0,0,0,.23.5c.18.11.18.15,0,.22s-.15.13.07.27.25.23.09.42-.14.33.08.71.24.53.19.61,0,.23.16.34.2.24-.1.52a.7.7,0,0,0-.26.62c.06.21,0,.3-.2.3s-.26.1-.21.4,0,.38-.18.3-.31,0-.42.32-.26.42-.39.42a.48.48,0,0,0-.36.2,1.8,1.8,0,0,1-.57.43,4,4,0,0,0-.75.52,1.12,1.12,0,0,1-.46.29,1.48,1.48,0,0,0-.53.3c-.37.29-1.63.56-1.48.31Zm1-.39a.32.32,0,0,0-.31,0c-.13.05-.09.09.1.1s.26,0,.21-.08ZM47.36,37.34c-.38-.24-.57-.18-.23.07.17.12.34.19.39.15s0-.14-.16-.22Zm27.33-.74c1.51-.71,2.52-1.53,2.31-1.88a30.13,30.13,0,0,1-.14-3.46c0-1.8-.07-3.6-.11-4-.18-1.59-.3-3.38-.35-5.36a33.09,33.09,0,0,0-.4-5,19.07,19.07,0,0,0-.82-3.56,17.44,17.44,0,0,0-.94-2.24c-.08-.13-.29-.53-.46-.88a7.6,7.6,0,0,0-2.86-3.44c-1.61-1.07-4.32-1.38-7.7-.87a11.51,11.51,0,0,0-2,.42,27.09,27.09,0,0,0-3.58,2.5,17.61,17.61,0,0,1-1.92,1.63c-.29.21-.52.47-.52.59a.21.21,0,0,1-.2.21c-.11,0-.34.22-.52.48s-.37.48-.44.48-.12.11-.12.24-.08.24-.17.24-.13.07-.08.15a.18.18,0,0,1-.07.25.42.42,0,0,0-.16.33,1.43,1.43,0,0,1-.36.64,1.5,1.5,0,0,0-.36.6,10.42,10.42,0,0,1-1.6,3c-.12,0-.27.23-.33.52a2.51,2.51,0,0,1-.23.68,6.47,6.47,0,0,0-.39,1c-.15.48-.32,1-.37,1.12a4.25,4.25,0,0,0-.27.92c-.07.29-.21.52-.31.52s-.09.07.05.16.2.19,0,.38-.23.24-.08.29.17.12,0,.33a.57.57,0,0,0-.13.49,2.19,2.19,0,0,1-.12.93,11.6,11.6,0,0,0-.31,1.82c-.14,1.46-.34,2.33-.59,2.49s-.16.17,0,.36a.55.55,0,0,1,0,.61,5.45,5.45,0,0,0-.33,2.7.48.48,0,0,1,0,.52,2,2,0,0,0-.18,1.5c.12.31.22.35.66.26a1.76,1.76,0,0,0,.85-.48,1.06,1.06,0,0,1,.54-.37c.12,0,.17-.1.13-.22a.64.64,0,0,1,.14-.52,1.54,1.54,0,0,0,.23-.78,1.71,1.71,0,0,1,.24-.82c.13-.18.19-.38.14-.42s.06-.18.24-.29a.51.51,0,0,0,.24-.63c0-.24,0-.48.09-.54a.75.75,0,0,0,.18-.55,1.45,1.45,0,0,1,.23-.75,1.32,1.32,0,0,0,.24-.65,2.24,2.24,0,0,1,.24-.8,4.08,4.08,0,0,0,.33-1,4.85,4.85,0,0,1,.23-.88,2.52,2.52,0,0,0,.12-.85.89.89,0,0,1,.19-.66.31.31,0,0,0,.13-.35c-.12-.32.17-.78.43-.68s.5-.46.35-.7c0-.07.05-.3.21-.51a.82.82,0,0,0,.16-.84c-.12-.41-.09-.45.26-.45s.54-.42.11-.52c-.22,0-.17-.12.21-.32a2.34,2.34,0,0,0,.8-.87,3,3,0,0,1,.47-.72c.09-.06,0-.16-.12-.22s-.27-.12,0-.32.21-.22.08-.22-.17-.07-.12-.15.23-.11.4-.06.29,0,.23-.23,0-.34.25-.4.3-.17.24-.34,0-.25.16-.25a.24.24,0,0,1,.26.2c0,.11.13,0,.28-.24a1.38,1.38,0,0,1,.56-.53c.16,0,.28-.17.28-.28,0-.26.9-.75,1.37-.75.21,0,.39-.07.39-.16A.18.18,0,0,0,60,14c-.12,0-.13-.05,0-.15a2.55,2.55,0,0,1,1-.22c.44,0,1-.12,1.28-.17a13.85,13.85,0,0,1,1.6-.11,3.78,3.78,0,0,0,1.32-.19c.29-.23.66,0,.85.45s.23.4.55.32.43,0,.48.05,0,.17-.16.2.24.34,1.22.74c.34.14.41.26.39.74,0,.32,0,.58.11.58a1.61,1.61,0,0,1,.77.8c0,.09-.11.16-.24.16s-.24.08-.24.17.19.15.42.12.45,0,.55.3.06.37-.12.44-.2.15-.07.31.13.26.07.32.05.11.24.11.35.07.35.16-.12.16-.26.16-.21.05-.09.2a.7.7,0,0,1,.17.32,3.27,3.27,0,0,0,.34,1.4c.22,0,.3.63.16,1.15a1.14,1.14,0,0,0,0,.75.59.59,0,0,1,0,.55.42.42,0,0,0,0,.52c.1.12.15.28.1.36a1.6,1.6,0,0,0,0,.72,1.31,1.31,0,0,1,0,.68,1.13,1.13,0,0,0,0,1c.11.21.11.33,0,.41s-.09.18.12.34.27.24.06.37-.16.15-.05.15.17.26.13.76a1.44,1.44,0,0,0,.18,1c.16.18.18.3.07.37s-.22.68,0,.75.17.33.19.66a1.09,1.09,0,0,0,.27.74c.17.1.18.16,0,.25s-.06.26.26.59.41.49.21.63-.18.2.14.47.3.32.2.32c-.3,0-.2.29.14.4.17.06.31.15.29.21,0,.22.35,1,.51,1s.16.14.16.32c0,.4,0,.4,1.09-.11ZM55.44,27.26a.35.35,0,0,0-.26-.16c-.09,0-.12.07-.06.16a.35.35,0,0,0,.26.16C55.47,27.42,55.49,27.35,55.44,27.26Zm3.84-12c.05-.09,0-.16-.07-.16a.17.17,0,0,0-.17.16c0,.09,0,.16.07.16S59.23,15.35,59.28,15.26Zm-8.51-3.84c-.09-.33-.23-.4-.42-.21s.18.53.38.53.09-.14,0-.32ZM75.64,7.49a.32.32,0,0,0-.31,0c-.13.05-.09.09.1.1s.26,0,.21-.08ZM72,4.61s-.11-.06-.24-.06-.24.07-.24.15.11.11.24.06S72,4.64,72,4.61ZM60.46,4c.2-.16-.21-.34-.57-.24-.66.18-.68.52,0,.39A3.2,3.2,0,0,0,60.46,4Zm2.82-.71a.43.43,0,0,0-.34-.16c-.13,0-.2.07-.14.16a.43.43,0,0,0,.34.16C63.27,3.42,63.33,3.35,63.28,3.26Zm3.44-.32a.16.16,0,1,0-.16.16A.16.16,0,0,0,66.72,2.94Zm96.45,26.77a.32.32,0,0,1,.31,0c.05.05,0,.09-.21.08s-.22,0-.1-.1ZM2.16,16.06c-.05-.09,0-.16.07-.16a.17.17,0,0,1,.17.16c0,.09,0,.16-.07.16S2.21,16.15,2.16,16.06Z"/></svg>